<?xml version="1.0" encoding="UTF-8"?><svg id="a" xmlns="http://www.w3.org/2000/svg" viewBox="0 0 220.95 60.19"><defs><style>.b{fill:#ffe200;}.c{fill:#231815;}</style></defs><path class="b" d="M116.97,12.91l1.67,3.04c.05,.1,.13,.18,.23,.23l3.04,1.67c.4,.22,.4,.8,0,1.02l-3.04,1.67c-.1,.05-.18,.13-.23,.23l-1.67,3.04c-.22,.4-.8,.4-1.02,0l-1.67-3.04c-.05-.1-.13-.18-.23-.23l-3.04-1.67c-.4-.22-.4-.8,0-1.02l3.04-1.67c.1-.05,.18-.13,.23-.23l1.67-3.04c.22-.4,.8-.4,1.02,0Z"/><path class="b" d="M161.72,34.08l.87,1.59c.03,.05,.07,.09,.12,.12l1.59,.87c.21,.11,.21,.42,0,.53l-1.59,.87c-.05,.03-.09,.07-.12,.12l-.87,1.59c-.11,.21-.42,.21-.53,0l-.87-1.59c-.03-.05-.07-.09-.12-.12l-1.59-.87c-.21-.11-.21-.42,0-.53l1.59-.87c.05-.03,.09-.07,.12-.12l.87-1.59c.11-.21,.42-.21,.53,0Z"/><path class="c" d="M33.61,26.41h3.04c1.47,0,2.2,.63,2.2,1.89,0,.79-.3,1.45-.89,1.99-.6,.54-1.33,.81-2.21,.81h-4.04l-3.81,9.41c-2.65,6.49-6.56,9.74-11.74,9.74-2.71,0-4.95-.87-6.74-2.62-1.78-1.75-2.67-3.95-2.67-6.61,0-2.07,.53-4.05,1.58-5.93s2.53-3.51,4.43-4.87c1.61-1.14,3.49-2.04,5.63-2.71s4.25-1,6.33-1l2.77-.08,.86-.02,3.77-9.48,.22-.55c.3-.81,.68-1.35,1.15-1.62,.47-.27,1.25-.4,2.35-.4h10.07c1.82,0,2.73,.64,2.73,1.92,0,.76-.3,1.41-.9,1.95-.6,.54-1.34,.82-2.2,.82h-8.92l-3,7.36Zm-7.17,4.69h-1.06c-3.87,0-6.97,.88-9.29,2.65-2.59,1.98-3.89,4.21-3.89,6.7,0,1.34,.41,2.45,1.23,3.36,.82,.9,1.84,1.35,3.05,1.35,2.83,0,5.15-2.25,6.97-6.74l2.98-7.32Z"/><path class="c" d="M55.97,36.87h2.28c.9,0,1.54,.13,1.92,.4s.57,.71,.57,1.33c0,.8-.29,1.42-.87,1.88-.58,.45-1.4,.68-2.44,.68h-3.52c-1.1,0-1.83-.43-2.2-1.28-.72,.85-1.62,1.28-2.71,1.28h-2.87c-1.15,0-2.11-.36-2.87-1.08s-1.14-1.63-1.14-2.73c0-.63,.17-1.36,.51-2.2l2.67-6.56c.75-1.82,1.77-2.73,3.06-2.73,.56,0,1.04,.18,1.43,.54,.39,.36,.59,.8,.59,1.33,0,.39-.1,.85-.31,1.36l-.22,.53-2.06,5.05-.22,.59c-.12,.34-.18,.6-.2,.77-.03,.59,.35,.88,1.14,.88,1.62,0,2.7-.65,3.24-1.96l2.45-6.05c.73-1.83,1.77-2.75,3.1-2.75,.55,0,1.02,.18,1.41,.55s.59,.81,.59,1.32c0,.41-.17,1.03-.51,1.89l-2.85,6.99Z"/><path class="c" d="M76.02,36.87h2.36c1.66,0,2.49,.58,2.49,1.75,0,.8-.29,1.42-.88,1.87s-1.4,.67-2.44,.67h-4.1c-.8,0-1.47-.24-2.01-.73s-.81-1.09-.81-1.83c0-.44,.18-1.11,.55-2l1.73-4.28c.18-.44,.28-.81,.29-1.08,.01-.32-.12-.58-.38-.81s-.61-.33-1.03-.33c-1.35,0-2.44,1.01-3.26,3.04l-2.32,5.7c-.69,1.73-1.73,2.59-3.1,2.59-.56,0-1.04-.17-1.43-.51-.39-.34-.59-.76-.59-1.26,0-.37,.1-.81,.32-1.32l.22-.53,3.97-9.78c.51-1.27,1.38-1.9,2.61-1.9,1.01,0,1.73,.44,2.16,1.33,1.4-1.07,2.74-1.61,4.01-1.61s2.25,.35,3.04,1.06,1.2,1.6,1.2,2.69c0,.6-.14,1.26-.43,1.98l-2.14,5.28Z"/><path class="c" d="M92.85,41.15h-5.7c-1.64,0-2.97-.58-4-1.73s-1.54-2.64-1.54-4.48c0-2.45,.84-4.58,2.53-6.38,1.69-1.81,3.67-2.71,5.95-2.71,1.54,0,2.8,.43,3.77,1.3,.97,.86,1.45,1.99,1.45,3.38,0,.97-.24,1.76-.73,2.39s-1.11,.93-1.87,.93c-1.2,0-1.81-.56-1.81-1.69v-.43c.01-.14,.02-.28,.02-.41,0-.92-.45-1.37-1.36-1.37-.85,0-1.63,.45-2.33,1.35-.7,.9-1.05,1.91-1.05,3.02,0,.93,.29,1.59,.86,1.97,.57,.39,1.53,.58,2.9,.58h3.71c1.66,0,2.49,.58,2.49,1.75,0,.79-.3,1.4-.89,1.86-.6,.45-1.4,.68-2.43,.68Z"/><path class="c" d="M106.72,26.13h.61c1.66,0,2.49,.58,2.49,1.75,0,.8-.29,1.42-.88,1.87-.59,.45-1.4,.67-2.44,.67h-1.43l-2.63,6.46h2.2c1.66,0,2.49,.58,2.49,1.75,0,.8-.29,1.42-.87,1.87s-1.4,.67-2.44,.67h-3.52c-.99,0-1.78-.23-2.37-.69-.58-.46-.87-1.08-.87-1.87,0-.48,.12-1.02,.35-1.61l.37-.86,2.32-5.71h-.29c-1.47,0-2.2-.57-2.2-1.71,0-.81,.29-1.44,.87-1.9,.58-.45,1.4-.68,2.44-.68h.9l1.04-2.57,.22-.53c.61-1.45,1.58-2.18,2.91-2.18,.54,0,1,.18,1.38,.54,.39,.36,.58,.8,.58,1.31s-.17,1.13-.51,1.89l-.73,1.55Z"/><path class="c" d="M114.46,36.87h2.22c1.65,0,2.47,.58,2.47,1.75,0,.8-.29,1.42-.87,1.87-.58,.44-1.4,.67-2.44,.67h-3.12c-1.15,0-2.06-.24-2.72-.71-.66-.47-.99-1.11-.99-1.92,0-.43,.14-.98,.41-1.65l3.24-7.97,.22-.55c.6-1.48,1.57-2.22,2.91-2.22,.55,0,1.02,.18,1.42,.55,.4,.37,.6,.81,.6,1.32,0,.42-.18,1.06-.53,1.92l-2.81,6.95Z"/><path class="c" d="M128.99,25.86c1.9,0,3.46,.6,4.68,1.81,1.22,1.2,1.84,2.74,1.84,4.6,0,1.4-.32,2.79-.96,4.17-.64,1.38-1.47,2.48-2.49,3.31-.68,.54-1.38,.91-2.11,1.11-.73,.2-1.74,.3-3.05,.3-2.13,0-3.57-.25-4.32-.77-1.75-1.2-2.63-2.98-2.63-5.34,0-2.49,.9-4.64,2.69-6.46,1.79-1.82,3.91-2.73,6.36-2.73Zm-.47,4.18c-.97,0-1.85,.48-2.65,1.43-.8,.96-1.2,2.01-1.2,3.16,0,1.52,.85,2.28,2.55,2.28,.99,0,1.76-.31,2.3-.92,.89-1.01,1.33-2.16,1.33-3.46,0-.75-.22-1.35-.65-1.81s-.99-.69-1.69-.69Z"/><path class="c" d="M151.1,36.87h2.36c1.66,0,2.49,.58,2.49,1.75,0,.8-.29,1.42-.88,1.87s-1.4,.67-2.44,.67h-4.1c-.8,0-1.47-.24-2.01-.73s-.81-1.09-.81-1.83c0-.44,.18-1.11,.55-2l1.73-4.28c.18-.44,.28-.81,.29-1.08,.01-.32-.12-.58-.38-.81s-.61-.33-1.03-.33c-1.35,0-2.44,1.01-3.26,3.04l-2.32,5.7c-.69,1.73-1.73,2.59-3.1,2.59-.56,0-1.04-.17-1.43-.51-.39-.34-.59-.76-.59-1.26,0-.37,.1-.81,.32-1.32l.22-.53,3.97-9.78c.51-1.27,1.38-1.9,2.61-1.9,1.01,0,1.73,.44,2.16,1.33,1.4-1.07,2.74-1.61,4.01-1.61s2.25,.35,3.04,1.06,1.2,1.6,1.2,2.69c0,.6-.14,1.26-.43,1.98l-2.14,5.28Z"/><path class="c" d="M172.2,39.62l-5.13,12.61c-.71,1.74-1.74,2.61-3.1,2.61-.52,0-.97-.17-1.34-.52-.37-.35-.56-.76-.56-1.25,0-.41,.16-1.02,.49-1.85l9.47-23.33c.48-1.18,1.32-1.77,2.51-1.77,.82,0,1.48,.39,1.96,1.18,.92-.97,2.03-1.45,3.36-1.45s2.48,.52,3.33,1.56c.84,1.04,1.27,2.41,1.27,4.11,0,3.22-1,5.85-3,7.88-.66,.67-1.33,1.13-2.02,1.37s-1.66,.37-2.91,.37c-1.33,0-2.25-.09-2.76-.28-.5-.18-1.02-.6-1.56-1.26Zm1.61-4.01c.33,.58,.64,.95,.93,1.12,.29,.17,.76,.25,1.4,.25,.93,0,1.66-.35,2.18-1.04,1.06-1.4,1.59-2.84,1.59-4.32,0-1.27-.6-1.9-1.81-1.9-1.32,0-2.27,.77-2.85,2.3-.07,.17-.12,.31-.16,.43l-1.3,3.16Z"/><path class="c" d="M194.59,25.86c1.9,0,3.46,.6,4.68,1.81,1.22,1.2,1.84,2.74,1.84,4.6,0,1.4-.32,2.79-.96,4.17-.64,1.38-1.47,2.48-2.49,3.31-.68,.54-1.38,.91-2.11,1.11-.73,.2-1.74,.3-3.05,.3-2.13,0-3.57-.25-4.32-.77-1.75-1.2-2.63-2.98-2.63-5.34,0-2.49,.9-4.64,2.69-6.46,1.79-1.82,3.91-2.73,6.36-2.73Zm-.47,4.18c-.97,0-1.85,.48-2.65,1.43-.8,.96-1.2,2.01-1.2,3.16,0,1.52,.85,2.28,2.55,2.28,.99,0,1.76-.31,2.3-.92,.89-1.01,1.33-2.16,1.33-3.46,0-.75-.22-1.35-.65-1.81s-.99-.69-1.69-.69Z"/><path class="c" d="M206.41,39.62l-5.13,12.61c-.71,1.74-1.74,2.61-3.1,2.61-.52,0-.97-.17-1.34-.52-.37-.35-.56-.76-.56-1.25,0-.41,.16-1.02,.49-1.85l9.47-23.33c.48-1.18,1.32-1.77,2.51-1.77,.82,0,1.48,.39,1.96,1.18,.92-.97,2.03-1.45,3.36-1.45s2.48,.52,3.33,1.56c.84,1.04,1.27,2.41,1.27,4.11,0,3.22-1,5.85-3,7.88-.66,.67-1.33,1.13-2.02,1.37s-1.66,.37-2.91,.37c-1.33,0-2.25-.09-2.76-.28-.5-.18-1.02-.6-1.56-1.26Zm1.61-4.01c.33,.58,.64,.95,.93,1.12,.29,.17,.76,.25,1.4,.25,.93,0,1.66-.35,2.18-1.04,1.06-1.4,1.59-2.84,1.59-4.32,0-1.27-.6-1.9-1.81-1.9-1.32,0-2.27,.77-2.85,2.3-.07,.17-.12,.31-.16,.43l-1.3,3.16Z"/></svg>