<?xml version="1.0" encoding="UTF-8"?><svg id="a" xmlns="http://www.w3.org/2000/svg" viewBox="0 0 211.93 150.94"><defs><style>.b{fill:#ffe200;}</style></defs><path class="b" d="M70.55,30.31l-2.02,10.32h-1.36l2.02-10.32h-6.76v-2.24h7.2l1.8-8.83h-6.94v-2.24h7.38l1.71-8.43h1.36l-1.71,8.43h11.28l1.62-8.43h1.36l-1.62,8.43h6.81v2.24h-7.25l-1.71,8.83h6.89v2.24h-7.33l-1.98,10.32h-1.36l1.98-10.32h-11.37Zm.44-2.24h11.37l1.71-8.83h-11.29l-1.8,8.83Z"/><g><path class="b" d="M68.51,30.64l-2.02,10.32,2.9-1.26h-1.36l1.17,.6,2.02-10.32c.12-.62-.78-.6-1.17-.6h-6.76l1.19,.38v-2.24l-2.92,1.48h7.2c.62,0,2.72-.4,2.9-1.26l1.8-8.83c.13-.62-.79-.6-1.17-.6h-6.94l1.19,.38v-2.24l-2.92,1.48h7.38c.62,0,2.72-.4,2.9-1.26l1.71-8.43-2.9,1.26h1.36l-1.17-.6-1.71,8.43c-.13,.62,.79,.6,1.17,.6h11.28c.61,0,2.73-.41,2.9-1.26l1.62-8.43-2.9,1.26h1.36l-1.17-.6-1.62,8.43c-.12,.62,.78,.6,1.17,.6h6.81l-1.19-.38v2.24l2.92-1.48h-7.25c-.61,0-2.73,.41-2.9,1.26l-1.71,8.83c-.12,.62,.78,.6,1.17,.6h6.89l-1.19-.38v2.24l2.92-1.48h-7.33c-.61,0-2.73,.41-2.9,1.26l-1.98,10.32,2.9-1.26h-1.36l1.17,.6,1.98-10.32c.12-.62-.78-.6-1.17-.6h-11.37c-.74,0-2.33,.31-2.74,1.03-.44,.77,.38,.84,1.02,.84h11.37l-1.17-.6-1.98,10.32c-.12,.62,.78,.6,1.17,.6h1.36c.61,0,2.73-.41,2.9-1.26l1.98-10.32-2.9,1.26h7.33c.76,0,2.92-.44,2.92-1.48v-2.24c0-.42-.99-.38-1.19-.38h-6.89l1.17,.6,1.71-8.83-2.9,1.26h7.25c.76,0,2.92-.44,2.92-1.48v-2.24c0-.42-.99-.38-1.19-.38h-6.81l1.17,.6,1.62-8.43c.12-.62-.78-.6-1.17-.6h-1.36c-.61,0-2.73,.41-2.9,1.26l-1.62,8.43,2.9-1.26h-11.28l1.17,.6,1.71-8.43c.13-.62-.79-.6-1.17-.6h-1.36c-.62,0-2.72,.4-2.9,1.26l-1.71,8.43,2.9-1.26h-7.38c-.76,0-2.92,.44-2.92,1.48v2.24c0,.42,.99,.38,1.19,.38h6.94l-1.17-.6-1.8,8.83,2.9-1.26h-7.2c-.76,0-2.92,.44-2.92,1.48v2.24c0,.42,.99,.38,1.19,.38h6.76l-1.17-.6-2.02,10.32c-.12,.62,.78,.6,1.17,.6h1.36c.62,0,2.73-.41,2.9-1.26l2.02-10.32c.22-1.14-3.85-.47-4.07,.66Z"/><path class="b" d="M70.13,29h11.37c.62,0,1.28-.2,1.84-.45,.32-.14,.98-.41,1.06-.81l1.71-8.83c.12-.62-.78-.6-1.17-.6h-11.29c-.62,0-1.28,.2-1.84,.45-.32,.14-.98,.41-1.06,.81l-1.8,8.83c-.16,.78,1.26,.62,1.69,.55,.54-.1,1.08-.25,1.56-.5,.27-.14,.76-.39,.82-.71l1.8-8.83-2.9,1.26h11.29l-1.17-.6-1.71,8.83,2.9-1.26h-11.37c-.87,0-2.15,.34-2.74,1.03-.63,.72,.55,.84,1.02,.84Z"/></g></svg>