<?xml version="1.0" encoding="UTF-8"?><svg xmlns="http://www.w3.org/2000/svg" viewBox="0 0 771 725"><defs><style>.c{fill:#fff;}.d{fill:#ffe200;}</style></defs><g id="a"/><g id="b"><g><path class="d" d="M401.81,310.09l3.17,5.77c.09,.19,.25,.34,.44,.44l5.77,3.17c.76,.42,.76,1.52,0,1.94l-5.77,3.17c-.19,.09-.34,.25-.44,.44l-3.17,5.77c-.42,.76-1.52,.76-1.94,0l-3.17-5.77c-.09-.19-.25-.34-.44-.44l-5.77-3.17c-.76-.42-.76-1.52,0-1.94l5.77-3.17c.19-.09,.34-.25,.44-.44l3.17-5.77c.42-.76,1.52-.76,1.94,0Z"/><path class="d" d="M486.82,350.31l1.65,3.02c.06,.09,.13,.17,.23,.23l3.02,1.65c.4,.21,.4,.8,0,1.01l-3.02,1.65c-.09,.06-.17,.13-.23,.23l-1.65,3.02c-.21,.4-.8,.4-1.01,0l-1.65-3.02c-.06-.09-.13-.17-.23-.23l-3.02-1.65c-.4-.21-.4-.8,0-1.01l3.02-1.65c.09-.06,.17-.13,.23-.23l1.65-3.02c.21-.4,.8-.4,1.01,0Z"/><path class="c" d="M243.21,336.39h5.94c3.23,0,4.7,1.5,4.42,4.51-.09,1-.5,1.98-1.17,2.74-1.32,1.5-2.99,2.25-5.08,2.25h-5.99l-7.78,19.22c-5.41,13.26-13.4,19.89-23.98,19.89-5.54,0-10.11-1.78-13.77-5.35-3.64-3.57-5.45-8.07-5.45-13.5,0-4.23,1.08-8.27,3.23-12.11,2.14-3.84,5.17-7.17,9.05-9.95,3.29-2.33,7.13-4.17,11.5-5.54s8.68-2.04,12.93-2.04l5.66-.16,1.76-.04,7.7-19.36,.45-1.12c.61-1.65,1.39-2.76,2.35-3.31,.96-.55,2.55-.82,4.8-.82h16.9c3.69,0,5.53,1.3,5.53,3.89,0,1.54-.61,2.86-1.82,3.95-1.22,1.09-2.71,1.66-4.46,1.66h-16.5l-6.19,15.2h-.02Zm-13.37,7.6h-2.01c-7.35,0-13.24,1.67-17.65,5.03-4.92,3.76-7.39,8-7.39,12.73,0,2.87,.99,5.18,2.97,7.02,1.16,1.08,2.69,1.75,4.27,1.89,5.78,.49,10.49-3.77,14.13-12.76l5.66-13.91h.02Z"/><path class="c" d="M285.35,355.38h4.04c1.59,0,2.73,.23,3.4,.71s1.01,1.26,1.01,2.36c0,1.42-.51,2.52-1.54,3.33-1.03,.8-2.48,1.2-4.32,1.2h-6.23c-1.95,0-3.24-.76-3.9-2.27-1.28,1.51-2.87,2.27-4.8,2.27h-5.08c-2.04,0-3.74-.64-5.08-1.91s-2.02-2.89-2.02-4.84c0-1.12,.3-2.41,.9-3.9l4.73-11.62c1.33-3.22,3.14-4.84,5.42-4.84,.99,0,1.84,.32,2.53,.96s1.05,1.42,1.05,2.36c0,.69-.18,1.51-.55,2.41l-.39,.94-3.65,8.94-.39,1.05c-.21,.6-.32,1.06-.35,1.36-.05,1.05,.62,1.56,2.02,1.56,2.87,0,4.78-1.15,5.74-3.47l4.34-10.72c1.29-3.24,3.14-4.87,5.49-4.87,.97,0,1.81,.32,2.5,.97s1.05,1.43,1.05,2.34c0,.73-.3,1.82-.9,3.35l-5.05,12.38,.05-.05Z"/><path class="c" d="M323.37,355.38h4.18c2.94,0,4.41,1.03,4.41,3.1,0,1.42-.51,2.52-1.56,3.31s-2.48,1.19-4.32,1.19h-7.26c-1.42,0-2.6-.43-3.56-1.29s-1.43-1.93-1.43-3.24c0-.78,.32-1.97,.97-3.54l3.06-7.58c.32-.78,.5-1.43,.51-1.91,.02-.57-.21-1.03-.67-1.43s-1.08-.58-1.82-.58c-2.39,0-4.32,1.79-5.77,5.38l-4.11,10.1c-1.22,3.06-3.06,4.59-5.49,4.59-.99,0-1.84-.3-2.53-.9s-1.05-1.35-1.05-2.23c0-.66,.18-1.43,.57-2.34l.39-.94,7.03-17.32c.9-2.25,2.44-3.37,4.62-3.37,1.79,0,3.06,.78,3.83,2.36,2.48-1.9,4.85-2.85,7.1-2.85s3.99,.62,5.38,1.88,2.13,2.83,2.13,4.76c0,1.06-.25,2.23-.76,3.51l-3.79,9.35-.05,.02Z"/><path class="c" d="M356.51,362.98h-10.12c-2.91,0-5.27-1.03-7.1-3.07s-2.73-4.69-2.73-7.95c0-4.35,1.49-8.13,4.49-11.33,3-3.21,6.52-4.81,10.56-4.81,2.73,0,4.97,.76,6.69,2.31,1.72,1.53,2.57,3.53,2.57,6,0,1.72-.43,3.12-1.3,4.24s-1.97,1.65-3.32,1.65c-2.13,0-3.21-.99-3.21-3v-.76c.02-.25,.04-.5,.04-.73,0-1.63-.8-2.43-2.41-2.43-1.51,0-2.89,.8-4.14,2.4-1.24,1.6-1.86,3.39-1.86,5.36,0,1.65,.51,2.82,1.53,3.5,1.01,.69,2.72,1.03,5.15,1.03h6.59c2.95,0,4.42,1.03,4.42,3.11,0,1.4-.53,2.49-1.58,3.3-1.07,.8-2.49,1.21-4.31,1.21l.05-.02Z"/><path class="c" d="M382.34,336.39h1.27c2.94,0,4.41,1.03,4.41,3.1,0,1.42-.51,2.52-1.56,3.31s-2.48,1.19-4.32,1.19h-3.11l-4.64,11.4h4s4.73,1.34,4.73,3.57c0,1.52-.55,2.7-1.65,3.55s-4.64,2.38-4.64,2.38h-6.61c-1.93,0-3.46-.45-4.61-1.34-1.13-.89-1.69-2.1-1.69-3.64,0-.93,.23-1.98,.68-3.13l.72-1.67,4.51-11.11h-.69c-2.6,0-3.9-1.01-3.9-3.03,0-1.43,.51-2.55,1.54-3.37,1.03-.8,2.48-1.2,4.32-1.2h1.92l1.98-6.05,.42-1.01c1.16-2.75,3-4.14,5.53-4.14,1.03,0,1.9,.34,2.62,1.03,.74,.68,1.1,1.52,1.1,2.49s-.32,2.15-.97,3.59l-1.39,2.94,.02,1.15Z"/><path class="c" d="M396.99,355.38h3.93c2.92,0,4.37,1.03,4.37,3.1,0,1.42-.51,2.52-1.54,3.31-1.03,.78-2.48,1.19-4.32,1.19h-5.53c-2.04,0-3.65-.43-4.82-1.26-1.17-.83-1.75-1.97-1.75-3.4,0-.76,.25-1.74,.73-2.92l5.74-14.12,.39-.97c1.06-2.62,2.78-3.93,5.15-3.93,.97,0,1.81,.32,2.52,.97,.71,.66,1.06,1.43,1.06,2.34,0,.74-.32,1.88-.94,3.4l-4.98,12.31-.02-.02Z"/><path class="c" d="M424.64,334.49c3.61,0,6.57,1.14,8.89,3.44,2.32,2.28,3.5,5.2,3.5,8.74,0,2.66-.61,5.3-1.82,7.92s-2.79,4.71-4.73,6.29c-1.29,1.03-2.62,1.73-4.01,2.11s-3.31,.57-5.79,.57c-4.05,0-6.78-.47-8.21-1.46-3.32-2.28-5-5.66-5-10.14,0-4.73,1.71-8.81,5.11-12.27s7.43-5.19,12.08-5.19h-.02Zm-.89,8.14c-1.84,0-3.51,.91-5.03,2.72-1.52,1.82-2.28,3.82-2.28,6,0,2.89,1.61,4.33,4.84,4.33,1.88,0,3.34-.59,4.37-1.75,1.69-1.92,2.53-4.1,2.53-6.57,0-1.42-.42-2.56-1.23-3.44s-1.88-1.31-3.21-1.31l.02,.02Z"/><path class="c" d="M466,355.38h4.18c2.94,0,4.41,1.03,4.41,3.1,0,1.42-.51,2.52-1.56,3.31s-2.48,1.19-4.32,1.19h-7.26c-1.42,0-2.6-.43-3.56-1.29s-1.43-1.93-1.43-3.24c0-.78,.32-1.97,.97-3.54l3.06-7.58c.32-.78,.5-1.43,.51-1.91,.02-.57-.21-1.03-.67-1.43s-1.08-.58-1.82-.58c-2.39,0-4.32,1.79-5.77,5.38l-4.11,10.1c-1.22,3.06-3.06,4.59-5.49,4.59-.99,0-1.84-.3-2.53-.9s-1.05-1.35-1.05-2.23c0-.66,.18-1.43,.57-2.34l.39-.94,7.03-17.32c.9-2.25,2.44-3.37,4.62-3.37,1.79,0,3.06,.78,3.83,2.36,2.48-1.9,4.85-2.85,7.1-2.85s3.99,.62,5.38,1.88,2.13,2.83,2.13,4.76c0,1.06-.25,2.23-.76,3.51l-3.79,9.35-.05,.02Z"/><path class="c" d="M506.73,360.83l-9.75,23.95c-1.35,3.31-3.31,4.96-5.89,4.96-.99,0-1.84-.32-2.55-.99-.7-.66-1.06-1.44-1.06-2.37,0-.78,.3-1.94,.93-3.51l17.99-44.32c.91-2.24,2.51-3.36,4.77-3.36,1.56,0,2.81,.74,3.72,2.24,1.75-1.84,3.86-2.75,6.38-2.75s4.71,.99,6.33,2.96c1.6,1.98,2.41,4.58,2.41,7.81,0,6.12-1.9,11.11-5.7,14.97-1.25,1.27-2.53,2.15-3.84,2.6s-3.15,.7-5.53,.7c-2.53,0-4.27-.17-5.24-.53-.95-.34-1.94-1.14-2.96-2.39l-.02,.04Zm3.06-7.35c.63,1.1,1.22,1.8,1.77,2.13s1.44,.47,2.66,.47c1.77,0,3.15-.66,4.14-1.98,2.01-2.66,3.02-5.39,3.02-8.21,0-2.41-1.14-3.61-3.44-3.61-2.51,0-4.31,1.46-5.41,4.37-.13,.32-.23,.59-.3,.82l-2.47,6h.04Z"/><path class="c" d="M549.26,334.49c3.61,0,6.57,1.14,8.89,3.44,2.32,2.28,3.5,5.2,3.5,8.74,0,2.66-.61,5.3-1.82,7.92s-2.79,4.71-4.73,6.29c-1.29,1.03-2.62,1.73-4.01,2.11s-3.31,.57-5.79,.57c-4.05,0-6.78-.47-8.21-1.46-3.32-2.28-5-5.66-5-10.14,0-4.73,1.71-8.81,5.11-12.27,3.4-3.46,7.43-5.19,12.08-5.19h-.02Zm-.89,8.14c-1.84,0-3.51,.91-5.03,2.72-1.52,1.82-2.28,3.82-2.28,6,0,2.89,1.61,4.33,4.84,4.33,1.88,0,3.34-.59,4.37-1.75,1.69-1.92,2.53-4.1,2.53-6.57,0-1.42-.42-2.56-1.23-3.44s-1.88-1.31-3.21-1.31l.02,.02Z"/><path class="c" d="M571.71,360.83l-9.75,23.95c-1.35,3.31-3.31,4.96-5.89,4.96-.99,0-1.84-.32-2.55-.99-.7-.66-1.06-1.44-1.06-2.37,0-.78,.3-1.94,.93-3.51l17.99-44.32c.91-2.24,2.51-3.36,4.77-3.36,1.56,0,2.81,.74,3.72,2.24,1.75-1.84,3.86-2.75,6.38-2.75s4.71,.99,6.33,2.96c1.6,1.98,2.41,4.58,2.41,7.81,0,6.12-1.9,11.11-5.7,14.97-1.25,1.27-2.53,2.15-3.84,2.6s-3.15,.7-5.53,.7c-2.53,0-4.27-.17-5.24-.53-.95-.34-1.94-1.14-2.96-2.39l-.02,.04Zm3.06-7.35c.63,1.1,1.22,1.8,1.77,2.13s1.44,.47,2.66,.47c1.77,0,3.15-.66,4.14-1.98,2.01-2.66,3.02-5.39,3.02-8.21,0-2.41-1.14-3.61-3.44-3.61-2.51,0-4.31,1.46-5.41,4.37-.13,.32-.23,.59-.3,.82l-2.47,6h.04Z"/></g><path class="c" d="M400.1,63.96v197.33c0,2.66-.12,5.36,0,8.02,0,.12,0,.23,0,.35,0,.48,.75,.48,.75,0V72.33c0-2.66,.12-5.36,0-8.02,0-.12,0-.23,0-.35,0-.48-.75-.48-.75,0h0Z"/><path class="c" d="M300.38,94.87v106.37c0,1.38-.21,2.96,0,4.33,0,.06,0,.13,0,.19,0,.48,.75,.48,.75,0V99.39c0-1.38,.21-2.96,0-4.33,0-.06,0-.13,0-.19,0-.48-.75-.48-.75,0h0Z"/><path class="c" d="M202.18,74.95v220.33c0,2.98-.09,5.98,0,8.95,0,.13,0,.26,0,.39,0,.48,.75,.48,.75,0V84.3c0-2.98,.09-5.98,0-8.95,0-.13,0-.26,0-.39,0-.48-.75-.48-.75,0h0Z"/><path class="c" d="M486.98,23V229.27c0,2.78-.09,5.58,0,8.36,0,.12,0,.24,0,.37,0,.48,.75,.48,.75,0V31.73c0-2.78,.09-5.58,0-8.36,0-.12,0-.24,0-.37,0-.48-.75-.48-.75,0h0Z"/><path class="c" d="M401.27,37.17l1.65,3.02c.06,.09,.13,.17,.23,.23l3.02,1.65c.4,.21,.4,.8,0,1.01l-3.02,1.65c-.09,.06-.17,.13-.23,.23l-1.65,3.02c-.21,.4-.8,.4-1.01,0l-1.65-3.02c-.06-.09-.13-.17-.23-.23l-3.02-1.65c-.4-.21-.4-.8,0-1.01l3.02-1.65c.09-.06,.17-.13,.23-.23l1.65-3.02c.21-.4,.8-.4,1.01,0Z"/><path class="c" d="M574.1,36.77V120.27c0,1.09-.19,2.36,0,3.43,0,.05,0,.11,0,.16,0,.48,.75,.48,.75,0V40.36c0-1.09,.19-2.36,0-3.43,0-.05,0-.11,0-.16,0-.48-.75-.48-.75,0h0Z"/><path class="c" d="M574.1,176.77v83.5c0,1.09-.19,2.36,0,3.43,0,.05,0,.11,0,.16,0,.48,.75,.48,.75,0v-83.5c0-1.09,.19-2.36,0-3.43,0-.05,0-.11,0-.16,0-.48-.75-.48-.75,0h0Z"/><path class="c" d="M575.06,147.32l.99,1.82c.03,.06,.08,.1,.14,.14l1.82,.99c.24,.13,.24,.48,0,.61l-1.82,.99c-.06,.03-.1,.08-.14,.14l-.99,1.82c-.13,.24-.48,.24-.61,0l-.99-1.82c-.03-.06-.08-.1-.14-.14l-1.82-.99c-.24-.13-.24-.48,0-.61l1.82-.99c.06-.03,.1-.08,.14-.14l.99-1.82c.13-.24,.48-.24,.61,0Z"/><path class="c" d="M203.27,163.17l1.65,3.02c.06,.09,.13,.17,.23,.23l3.02,1.65c.4,.21,.4,.8,0,1.01l-3.02,1.65c-.09,.06-.17,.13-.23,.23l-1.65,3.02c-.21,.4-.8,.4-1.01,0l-1.65-3.02c-.06-.09-.13-.17-.23-.23l-3.02-1.65c-.4-.21-.4-.8,0-1.01l3.02-1.65c.09-.06,.17-.13,.23-.23l1.65-3.02c.21-.4,.8-.4,1.01,0Z"/><path class="c" d="M488.06,251.32l.99,1.82c.03,.06,.08,.1,.14,.14l1.82,.99c.24,.13,.24,.48,0,.61l-1.82,.99c-.06,.03-.1,.08-.14,.14l-.99,1.82c-.13,.24-.48,.24-.61,0l-.99-1.82c-.03-.06-.08-.1-.14-.14l-1.82-.99c-.24-.13-.24-.48,0-.61l1.82-.99c.06-.03,.1-.08,.14-.14l.99-1.82c.13-.24,.48-.24,.61,0Z"/><path class="c" d="M301.27,217.17l1.65,3.02c.06,.09,.13,.17,.23,.23l3.02,1.65c.4,.21,.4,.8,0,1.01l-3.02,1.65c-.09,.06-.17,.13-.23,.23l-1.65,3.02c-.21,.4-.8,.4-1.01,0l-1.65-3.02c-.06-.09-.13-.17-.23-.23l-3.02-1.65c-.4-.21-.4-.8,0-1.01l3.02-1.65c.09-.06,.17-.13,.23-.23l1.65-3.02c.21-.4,.8-.4,1.01,0Z"/></g></svg>