<?xml version="1.0" encoding="UTF-8"?><svg id="a" xmlns="http://www.w3.org/2000/svg" viewBox="0 0 44.09 38.77"><defs><style>.b{fill:#ffe200;}.c{fill:#231815;}</style></defs><path class="c" d="M9.62,29.1l-.08-.82c-.06-.66,.37-1.28,1.01-1.42,2.57-.55,5.01-2.12,6.42-4.19,.79-1.16,1.61-2.99,.99-5.12-.79-2.74-4.99-2.84-7.08-2.71-.68,.04-1.27-.45-1.38-1.12l-.13-.83c-.12-.77,.43-1.48,1.2-1.54,3.88-.29,9.38,.55,10.74,5.24,.77,2.67,.26,5.53-1.46,8.05-1.94,2.84-5.15,4.92-8.62,5.65-.79,.16-1.54-.38-1.62-1.18Z"/><path class="c" d="M19.2,37.98c-.27,.67-1.05,.98-1.69,.67-6.72-3.27-11.15-10.5-11.15-18.41C6.36,9.08,14.93,0,25.47,0c2.15,0,4.25,.37,6.25,1.11,.68,.25,.99,1.03,.7,1.68l-.56,1.25c-.27,.6-.95,.88-1.57,.65-1.55-.55-3.16-.83-4.81-.83-8.41,0-15.25,7.35-15.25,16.38,0,6.4,3.52,12.23,8.87,14.88,.59,.29,.86,.98,.62,1.58l-.51,1.28Z"/><path class="c" d="M31.93,37.97l-.56-1.25c-.27-.6-.02-1.3,.55-1.61,5.08-2.79,8.31-8.39,8.31-14.59,0-2.37-.48-4.71-1.39-6.85-.26-.61-.02-1.31,.57-1.61l1.22-.63c.64-.33,1.43-.05,1.72,.61,1.15,2.64,1.75,5.55,1.75,8.48,0,7.67-4.06,14.61-10.45,18.05-.63,.34-1.42,.06-1.72-.59Z"/><rect class="c" x="0" y="11.05" width="12.57" height="3.6" rx="1.49" ry="1.49"/><g><path class="b" d="M27.91,21.4l-.69,3.51h-.46l.69-3.51h-2.3v-.76h2.45l.61-3.01h-2.36v-.76h2.51l.58-2.87h.46l-.58,2.87h3.84l.55-2.87h.46l-.55,2.87h2.32v.76h-2.47l-.58,3.01h2.35v.76h-2.5l-.67,3.51h-.46l.67-3.51h-3.87Zm.15-.76h3.87l.58-3.01h-3.84l-.61,3.01Z"/><g><path class="b" d="M27.21,21.51l-.69,3.51,.99-.43h-.46l.4,.21,.69-3.51c.04-.21-.27-.21-.4-.21h-2.3l.41,.13v-.76l-.99,.51h2.45c.21,0,.93-.14,.99-.43l.61-3.01c.04-.21-.27-.21-.4-.21h-2.36l.41,.13v-.76l-.99,.51h2.51c.21,0,.93-.14,.99-.43l.58-2.87-.99,.43h.46l-.4-.21-.58,2.87c-.04,.21,.27,.21,.4,.21h3.84c.21,0,.93-.14,.99-.43l.55-2.87-.99,.43h.46l-.4-.21-.55,2.87c-.04,.21,.27,.21,.4,.21h2.32l-.41-.13v.76l.99-.51h-2.47c-.21,0-.93,.14-.99,.43l-.58,3.01c-.04,.21,.27,.21,.4,.21h2.35l-.41-.13v.76l.99-.51h-2.5c-.21,0-.93,.14-.99,.43l-.67,3.51,.99-.43h-.46l.4,.21,.67-3.51c.04-.21-.27-.21-.4-.21h-3.87c-.25,0-.79,.11-.93,.35-.15,.26,.13,.29,.35,.29h3.87l-.4-.21-.67,3.51c-.04,.21,.27,.21,.4,.21h.46c.21,0,.93-.14,.99-.43l.67-3.51-.99,.43h2.5c.26,0,.99-.15,.99-.51v-.76c0-.14-.34-.13-.41-.13h-2.35l.4,.21,.58-3.01-.99,.43h2.47c.26,0,.99-.15,.99-.51v-.76c0-.14-.34-.13-.41-.13h-2.32l.4,.21,.55-2.87c.04-.21-.27-.21-.4-.21h-.46c-.21,0-.93,.14-.99,.43l-.55,2.87,.99-.43h-3.84l.4,.21,.58-2.87c.04-.21-.27-.21-.4-.21h-.46c-.21,0-.93,.14-.99,.43l-.58,2.87,.99-.43h-2.51c-.26,0-.99,.15-.99,.51v.76c0,.14,.34,.13,.41,.13h2.36l-.4-.21-.61,3.01,.99-.43h-2.45c-.26,0-.99,.15-.99,.51v.76c0,.14,.34,.13,.41,.13h2.3l-.4-.21-.69,3.51c-.04,.21,.27,.21,.4,.21h.46c.21,0,.93-.14,.99-.43l.69-3.51c.08-.39-1.31-.16-1.39,.22Z"/><path class="b" d="M27.76,20.96h3.87c.21,0,.44-.07,.63-.15,.11-.05,.33-.14,.36-.28l.58-3.01c.04-.21-.27-.21-.4-.21h-3.84c-.21,0-.44,.07-.63,.15-.11,.05-.33,.14-.36,.28l-.61,3.01c-.05,.27,.43,.21,.57,.19,.18-.03,.37-.08,.53-.17,.09-.05,.26-.13,.28-.24l.61-3.01-.99,.43h3.84l-.4-.21-.58,3.01,.99-.43h-3.87c-.3,0-.73,.12-.93,.35-.21,.25,.19,.29,.35,.29Z"/></g></g></svg>