<?xml version="1.0" encoding="UTF-8"?><svg id="a" xmlns="http://www.w3.org/2000/svg" viewBox="0 0 104.53 358.27"><defs><style>.b{stroke:#231815;stroke-miterlimit:10;stroke-width:1.5px;}</style></defs><path d="M54.29,0c2.33,.74,4.06,2.31,5.75,4,13.27,13.31,26.57,26.58,39.84,39.89,.86,.86,1.74,1.83,2.23,2.92,2.85,6.37-.89,13.39-8.12,13.7-.56,.02-1.12,0-1.82,0,0,.49,0,.87,0,1.26,0,10.05,.03,20.09-.04,30.14-.04,5.51-5,10.39-10.52,10.44-5.57,.05-11.15,.02-16.72,.01-1.95,0-3.17-1.29-3.17-3.33,0-7.74,0-15.49,0-23.23,0-3.58-1.98-5.58-5.55-5.59-2.87-.01-5.74,.06-8.61-.02-3.68-.11-5.59,2.79-5.54,5.56,.12,7.57,.04,15.15,.04,22.73,0,2.86-1.03,3.88-3.93,3.88-5.14,0-10.28,0-15.42,0-6.09-.01-11-4.63-11.07-10.7-.12-9.95-.04-19.89-.05-29.84,0-.39,0-.78,0-1.19-1.23-.11-2.37-.11-3.46-.33-3.57-.74-5.98-2.91-7.07-6.35-1.1-3.44-.35-6.58,2.06-9.3,.29-.32,.6-.62,.91-.93C17.23,30.53,30.43,17.35,43.6,4.13c1.73-1.74,3.48-3.39,5.89-4.13h4.81Zm13.48,96.35h1.1c3.87,0,7.74,0,11.62,0,3.61,0,5.67-2.05,5.67-5.62,0-10.95,0-21.9,0-32.84,0-2.19,1.21-3.39,3.41-3.39,1.4,0,2.8,.02,4.21,0,1.6-.03,2.84-1.06,3.25-2.61,.44-1.67-.44-2.78-1.52-3.86-13.55-13.54-27.1-27.09-40.65-40.63-2.09-2.09-3.82-2.09-5.91,0-12.06,12.06-24.12,24.12-36.18,36.18-1.68,1.68-3.36,3.34-5.03,5.03-1.09,1.1-1.44,2.4-.79,3.84,.62,1.39,1.75,2.05,3.26,2.06,1.27,0,2.54,0,3.8,0,2.47,0,3.62,1.14,3.62,3.59,0,10.95,0,21.9,0,32.84,0,3.32,2.11,5.42,5.45,5.43,3.97,0,7.94,0,11.92,0,.29,0,.59-.02,1-.04,0-.47,0-.9,0-1.32,.02-6.91-.05-13.82,.1-20.72,.1-4.81,4.29-9.47,9.06-9.88,4.14-.35,8.35-.45,12.49-.14,6.13,.47,10.1,5.16,10.13,11.42,.03,6.47,0,12.95,0,19.43,0,.39,0,.78,0,1.27Z"/><g><path class="b" d="M4.19,357.52c-.14-.08-.27-.17-.41-.23-2.85-1.17-3.87-4.13-2.28-6.78,3.25-5.43,6.63-10.78,9.78-16.27,2.24-3.9,4.96-7.33,8.2-10.45,5.74-5.54,11.31-11.26,16.96-16.9,.26-.26,.55-.49,.89-.78-.27-.31-.45-.54-.65-.74-3.81-3.82-7.64-7.63-11.44-11.46-.44-.44-.81-.6-1.48-.47-10.24,1.95-20.56-5.11-22.58-15.37-.81-4.1-.4-8.06,1.25-11.89,.72-1.68,1.79-1.88,3.08-.59,2.78,2.77,5.56,5.54,8.31,8.33,.43,.44,.81,.59,1.4,.33,.64-.28,1.31-.55,2-.65,1.61-.24,2.14-1.32,2.73-2.71,.89-2.07,.48-3.4-1.19-4.86-2.42-2.11-4.59-4.51-6.86-6.79-1.29-1.3-1.11-2.35,.55-3.09,11.34-5.13,24.87,1.9,27.18,14.11,.47,2.5,.52,4.98,.06,7.48-.05,.28,.03,.7,.22,.89,4.08,4.12,8.18,8.22,12.35,12.4,.32-.31,.61-.57,.89-.85,10.76-10.76,21.52-21.53,32.29-32.29,3.81-3.81,9.04-4.51,13.4-1.8,2.52,1.56,4.06,3.84,4.74,6.7,.06,.26,.15,.51,.22,.76v3.02c-.61,3.39-2.79,5.74-5.13,8.06-10.21,10.13-20.36,20.33-30.53,30.5-.28,.28-.54,.57-.94,.99,.34,.28,.65,.49,.9,.75,5.43,5.43,10.88,10.84,16.27,16.31,.85,.86,1.66,1.2,2.87,1.19,7.47-.06,13.98,4.93,15.96,12.15,.21,.76,.4,1.53,.59,2.3v4.23c-.06,.15-.16,.29-.19,.44-1.31,6.94-5.34,11.43-12.09,13.48-.73,.22-1.47,.38-2.2,.57h-4.23c-.08-.05-.16-.15-.24-.16-7.74-.93-14.77-8.15-14.26-17.4,.02-.41-.29-.94-.6-1.26-4.74-4.79-9.52-9.55-14.28-14.32-.8-.8-.86-1.75-.19-2.39,.68-.66,1.5-.63,2.3,.18,5.13,5.11,10.26,10.23,15.34,15.39,.4,.41,.53,1.18,.58,1.81,.09,1.09-.07,2.21,.06,3.3,.77,6.88,7.04,12.17,13.94,11.82,8.62-.43,14.63-8.36,12.63-16.77-1.64-6.88-8.03-10.9-14.26-10.29-1.12,.11-1.9-.12-2.68-.91-5.83-5.88-11.7-11.72-17.55-17.59-.25-.25-.36-.64-.61-1.09-.55,.63-.78,.93-1.04,1.19-11.23,11.24-22.47,22.48-33.71,33.72-.35,.35-.71,.73-1.13,.98-7.65,4.6-15.31,9.19-22.96,13.78h-2.21Zm.52-88.71c-.97,2.88-1.13,5.43-.69,8,1.65,9.51,10.76,15.58,20.12,13.42,1-.23,1.72-.04,2.43,.69,3.8,3.84,7.63,7.64,11.44,11.47,.47,.47,.88,1,1.22,1.39l10.73-10.69c-.13-.14-.31-.33-.5-.52-4.05-4.05-8.1-8.12-12.17-12.15-.77-.76-1.06-1.5-.78-2.59,.62-2.47,.59-4.98,0-7.46-1.77-7.38-7.99-12.51-15.57-12.83-1.86-.08-3.69,.16-5.81,.91,.51,.38,.84,.56,1.1,.82,2.36,2.34,4.69,4.7,7.05,7.03,.7,.69,.9,1.41,.56,2.35-.65,1.82-1.26,3.66-1.85,5.51-.26,.8-.71,1.3-1.53,1.56-1.88,.59-3.74,1.23-5.6,1.88-.9,.32-1.6,.13-2.27-.54-2.16-2.2-4.36-4.36-6.53-6.56-.44-.45-.8-.98-1.35-1.67Zm24.03,70.94c18.54-18.54,37.1-37.11,55.53-55.55l-4-4.02c-.05,.05-.18,.16-.3,.28-16.62,16.62-33.23,33.24-49.85,49.86-.35,.35-.69,.73-1,1.13-1.86,2.46-1.97,5.93-.39,8.3Zm-10.27-10.25c2.94,1.95,6.72,1.43,9.57-1.42,16.52-16.52,33.04-33.05,49.56-49.57,.2-.2,.39-.42,.49-.54l-4.06-4.04c-18.48,18.48-37.02,37.03-55.56,55.57Zm74.75-54.01c1.91-1.87,3.98-3.68,5.8-5.72,2.53-2.84,2.23-7.29-.5-10.02-2.72-2.73-7.19-3.04-10.02-.51-2.04,1.82-3.86,3.9-5.72,5.81,3.46,3.46,6.97,6.98,10.44,10.45ZM8.23,345.27c1.47,1.45,2.9,2.82,4.26,4.24,.46,.48,.78,.42,1.28,.11,2.48-1.53,4.97-3.03,7.47-4.54,1.71-1.04,3.43-2.07,5.21-3.14-1.72-2.65-2.19-5.48-1.57-8.54-3.11,.67-5.9,.1-8.53-1.54l-8.11,13.41Zm72.18-77.82l-3.96,3.95,10.36,10.42,4.01-3.99-10.41-10.38ZM10.22,351.76l-3.69-3.69c-.84,1.42-1.78,2.84-2.53,4.36-.2,.4-.01,1.26,.32,1.58,.33,.32,1.18,.47,1.59,.27,1.49-.74,2.88-1.66,4.31-2.51Z"/><path class="b" d="M95.42,340.94c0,4.6-3.66,8.22-8.29,8.21-4.54,0-8.18-3.69-8.18-8.25,0-4.57,3.69-8.23,8.29-8.22,4.54,.01,8.17,3.69,8.17,8.26Zm-8.22-5.9c-3.2,0-5.9,2.68-5.89,5.89,0,3.18,2.65,5.84,5.83,5.87,3.21,.03,5.9-2.63,5.93-5.85,.02-3.21-2.65-5.9-5.86-5.91Z"/></g><g><path d="M55.12,125.96c1.27,.26,2.56,.44,3.79,.8,10.03,2.92,16.41,9.49,18.51,19.69,2.63,12.76-4.93,25.43-17.37,29.11-9.69,2.86-18.44,.73-25.68-6.52-5.45-5.46-7.69-12.18-7.17-19.82,.76-10.99,9.38-20.69,20.18-22.8,.79-.15,1.59-.3,2.38-.46,1.78,0,3.57,0,5.35,0Zm16.54,25.34c.23-10.25-8.5-19.25-19.19-19.18-10.62,.07-19.09,8.55-19.15,19.17-.06,10.79,9.04,19.32,19.19,19.2,10.7-.12,19.17-8.5,19.15-19.19Z"/><path d="M53.08,231.26c-8.74,0-17.48,.05-26.22-.02-4.59-.04-8.74-1.48-12.19-4.63-2.98-2.72-4.8-6.13-5.16-10.11-.79-8.77,.2-17.37,3.47-25.59,1.96-4.93,4.9-9.17,9.76-11.76,3-1.6,6.21-2.37,9.57-2.3,1.06,.02,2.18,.56,3.15,1.08,1.56,.85,3.01,1.89,4.52,2.84,4.55,2.87,9.48,4.42,14.89,4.01,3.95-.3,7.61-1.62,10.99-3.67,1.2-.73,2.44-1.42,3.53-2.3,2.75-2.22,5.8-2.27,9.04-1.56,6.17,1.36,10.49,5.05,13.46,10.5,2.54,4.66,3.91,9.7,4.51,14.93,.44,3.83,.64,7.71,.64,11.57,0,8.29-5.64,15-13.77,16.55-1.6,.31-3.26,.43-4.89,.44-8.43,.04-16.86,.02-25.29,.02h0Zm.07-6.16c2.16,0,4.32,0,6.48,0,6.44,0,12.89,.09,19.33-.04,7.8-.16,12.07-4.64,11.93-12.43-.05-3.01-.25-6.03-.62-9.01-.55-4.46-1.6-8.81-3.79-12.8-2.01-3.66-4.74-6.41-8.97-7.4-1.83-.43-3.54-.52-5.11,.83-.85,.73-1.87,1.26-2.83,1.86-9.51,5.86-19.38,6.66-29.51,1.8-2.55-1.22-4.87-2.91-7.3-4.36-.37-.22-.81-.45-1.22-.43-3.57,.13-6.67,1.36-9.09,4.07-2.3,2.58-3.75,5.62-4.76,8.88-1.74,5.61-2.23,11.41-2.24,17.24-.01,4.56,1.64,8.29,5.94,10.45,2.16,1.09,4.51,1.35,6.88,1.35,8.29,0,16.59,0,24.88,0Z"/></g></svg>