<?xml version="1.0" encoding="UTF-8"?><svg id="a" xmlns="http://www.w3.org/2000/svg" viewBox="0 0 39.87 39.87"><path d="M20.05,5.41c.81,.4,1.62,.81,2.44,1.2,3.64,1.76,7.28,3.51,10.92,5.26,.31,.15,.44,.34,.43,.7,0,5.16,0,10.31,0,15.47,0,.34-.13,.53-.43,.67-4.39,2.11-8.78,4.23-13.16,6.35-.26,.12-.48,.13-.74,0-4.39-2.12-8.77-4.24-13.17-6.35-.31-.15-.43-.35-.43-.7,0-5.15,0-10.29,0-15.44,0-.37,.14-.56,.46-.71,4.37-2.1,8.73-4.21,13.09-6.31,.08-.04,.16-.1,.24-.15,.12,0,.23,0,.35,0Zm12.91,7.68c-.08,.03-.13,.05-.17,.07-1.22,.59-2.44,1.18-3.66,1.76-.16,.08-.19,.18-.19,.34,0,1.63,0,3.26,0,4.88,0,.25-.06,.44-.3,.55-1.06,.51-2.12,1.02-3.19,1.53-.2,.1-.42,.1-.55-.1-.09-.13-.12-.33-.12-.49,0-1.59,0-3.18,0-4.77,0-.19-.06-.29-.24-.37-4.23-2.03-8.45-4.08-12.68-6.11-.11-.05-.28-.05-.39,0-.79,.36-1.57,.75-2.35,1.13-.57,.28-1.14,.55-1.75,.85,.13,.06,.21,.11,.3,.15,2.96,1.43,5.92,2.86,8.88,4.29,.1,.05,.21,.1,.31,.16,.19,.14,.23,.33,.14,.54-.09,.2-.27,.27-.48,.23-.09-.02-.18-.06-.27-.1-2.52-1.21-5.03-2.43-7.55-3.64-.62-.3-1.25-.6-1.91-.92v.35c0,4.73,0,9.46,0,14.19,0,.25,.08,.37,.3,.47,3.44,1.65,6.88,3.31,10.32,4.97,.66,.32,1.32,.64,2.02,.97v-4.22c0-3.41,0-6.82,0-10.24,0-.33-.09-.49-.39-.6-.24-.08-.46-.21-.68-.32-.3-.15-.4-.38-.28-.63,.12-.24,.37-.3,.68-.16,.3,.14,.58,.31,.89,.42,.13,.05,.33,.06,.45,0,.9-.42,1.79-.86,2.69-1.29,.13-.06,.32-.14,.43-.09,.14,.06,.3,.23,.34,.38,.06,.22-.1,.37-.3,.47-.88,.42-1.75,.86-2.64,1.27-.22,.1-.31,.22-.3,.47,0,4.73,0,9.46,0,14.19v.34c.13-.06,.23-.1,.32-.14,4.02-1.94,8.03-3.88,12.05-5.81,.2-.1,.27-.21,.27-.44,0-4.75,0-9.5,0-14.25v-.3Zm-16.67-5.02c.14,.07,.23,.13,.32,.17,3.98,1.92,7.95,3.84,11.93,5.76,.18,.09,.32,.08,.49,0,1.02-.5,2.05-.99,3.08-1.49,.08-.04,.15-.08,.25-.14-.91-.44-1.79-.87-2.67-1.29-3.19-1.54-6.39-3.08-9.59-4.62-.11-.05-.27-.09-.37-.04-1.14,.53-2.26,1.09-3.44,1.66Zm11.44,6.54c-.1-.06-.15-.09-.21-.12-4.01-1.94-8.03-3.88-12.04-5.81-.12-.06-.31-.05-.42,0-.69,.32-1.38,.66-2.06,.99-.07,.03-.14,.08-.23,.13,.11,.06,.19,.1,.26,.14,3.73,1.8,7.47,3.61,11.2,5.41,.33,.16,.66,.43,1,.43,.33,0,.67-.28,1-.43,.49-.24,.98-.48,1.51-.74Zm.33,.83c-.75,.36-1.43,.7-2.12,1.02-.19,.09-.26,.19-.26,.41,.01,1.32,0,2.63,0,3.95,0,.09,0,.18,.02,.31,.72-.35,1.4-.68,2.09-1,.2-.09,.28-.2,.28-.43-.01-1.31,0-2.61,0-3.92v-.34Z"/><path d="M8.28,23.19c.06,.02,.17,.06,.27,.11,1.17,.56,2.33,1.12,3.49,1.68,.05,.03,.1,.05,.15,.08,.25,.14,.33,.36,.22,.58-.11,.23-.35,.32-.61,.2-.46-.21-.92-.44-1.38-.66-.79-.38-1.58-.77-2.37-1.15-.22-.11-.32-.29-.26-.52,.05-.21,.21-.32,.49-.32Z"/><path d="M10.63,26.55c0,.41-.3,.63-.58,.51-.69-.31-1.36-.64-2.04-.98-.23-.12-.29-.35-.19-.57,.11-.23,.34-.32,.58-.21,.66,.31,1.31,.62,1.96,.95,.13,.07,.22,.24,.27,.3Z"/></svg>