<?xml version="1.0" encoding="UTF-8"?><svg id="a" xmlns="http://www.w3.org/2000/svg" viewBox="0 0 39.87 39.87"><defs><style>.b{fill:#231815;}</style></defs><path d="M37.5,26.28c-.28,.97-1.02,1.47-1.89,1.82-.26,.11-.34,.23-.3,.54,.24,1.82-1.21,3.52-3.04,3.59-1.89,.08-3.43-1.43-3.38-3.31,0-.15,0-.29,0-.46H13.57c.13,1.34-.29,2.46-1.43,3.23-.65,.44-1.38,.63-2.16,.51-1.9-.29-3-1.76-2.82-3.77-.12,0-.24,0-.37,0-.95,0-1.9,0-2.85,0-.72,0-1.16-.44-1.16-1.16,0-4.83,0-9.67,0-14.5,0-.7,.44-1.14,1.14-1.14,6.46,0,12.92,0,19.38,0,.7,0,1.14,.44,1.15,1.14,0,.33,0,.65,0,1.03h.38c1.38,0,2.76,0,4.13,0,.9,0,1.43,.37,1.74,1.21,.55,1.51,1.11,3.02,1.65,4.54,.08,.23,.2,.36,.44,.44,1.04,.33,2.06,.71,3.11,1.02,.73,.22,1.31,.57,1.58,1.32v3.93Zm-14.07-2.71v-.41c0-3.35,0-6.71,0-10.06,0-.33-.06-.44-.42-.44-6.27,.01-12.53,0-18.8,0h-.38v10.9H23.43Zm1.06,.02h.44c2.81,0,5.62,0,8.44,0,.11,0,.23,0,.34,0,.34,.04,.54,.25,.53,.54-.01,.28-.22,.47-.54,.5-.1,0-.2,0-.3,0-2.83,0-5.67,0-8.5,0h-.39v2.76h.36c1.37,0,2.73,0,4.1,0,.24,0,.38-.08,.52-.28,1.26-1.78,3.88-1.81,5.2-.07,.06,.08,.12,.16,.2,.25,.36-.18,.72-.35,1.06-.54,.32-.18,.5-.47,.53-.82,.03-.42,0-.85,0-1.29-.41-.08-1.02,.15-1.05-.51-.03-.74,.65-.49,1.07-.6,0-.2,0-.38,0-.56,0-.59-.09-.71-.65-.9-1.16-.39-2.33-.78-3.49-1.16-.19-.06-.4-.09-.59-.09-2.29,0-4.59,0-6.88,0h-.37v2.75Zm-1.09,3.81v-2.74H3.83v2.74h.38c1,0,2.01,0,3.01,0,.24,0,.38-.07,.52-.27,1.31-1.83,3.98-1.82,5.27,.03,.13,.18,.26,.24,.47,.24,3.19,0,6.39,0,9.58,0h.34Zm-10.84,1.62c0-1.22-.96-2.2-2.17-2.2-1.23,0-2.23,.98-2.23,2.2,0,1.2,1,2.2,2.2,2.2,1.2,0,2.2-.99,2.2-2.19Zm11.93-11.99v2.75h4.69c-.32-.89-.63-1.75-.96-2.61-.03-.07-.19-.13-.3-.13-.72-.01-1.44,0-2.17,0-.42,0-.83,0-1.26,0m5.41,11.97c0,1.21,.97,2.19,2.18,2.21,1.2,.02,2.23-1.01,2.22-2.21-.01-1.21-1-2.18-2.21-2.18-1.22,0-2.19,.97-2.19,2.18Zm-5.41-13.03h5.47c-.05-.16-.09-.27-.13-.39-.25-.7-.31-.74-1.05-.74-1.31,0-2.62,0-3.93,0-.12,0-.24,0-.36,0v1.13m4.78,1.05c.33,.9,.63,1.73,.93,2.56,.03,.07,.1,.18,.15,.19,.32,.02,.63,0,.99,0-.33-.9-.63-1.75-.94-2.58-.03-.07-.13-.16-.21-.16-.29-.02-.58,0-.92,0Z"/><path d="M11.42,29.01c0,.58-.48,1.05-1.05,1.05-.57,0-1.05-.49-1.06-1.06,0-.59,.49-1.07,1.08-1.06,.59,.01,1.04,.48,1.03,1.06Z"/><path d="M31.05,29.02c0-.59,.45-1.05,1.03-1.06,.59-.01,1.08,.47,1.08,1.06,0,.57-.49,1.05-1.05,1.06-.57,0-1.05-.48-1.05-1.05Z"/><path class="b" d="M8.58,16.82h-1.68v1.08h1.41c.13,0,.23,.03,.29,.09,.06,.06,.1,.14,.1,.23s-.03,.17-.1,.23c-.06,.06-.16,.09-.29,.09h-1.41v1.39c0,.18-.04,.31-.12,.39-.08,.08-.18,.13-.31,.13s-.23-.04-.31-.13-.12-.22-.12-.39v-3.24c0-.12,.02-.22,.05-.3,.04-.08,.09-.13,.17-.17,.08-.04,.18-.05,.3-.05h2.01c.14,0,.24,.03,.3,.09,.07,.06,.1,.14,.1,.24s-.03,.18-.1,.24-.17,.09-.3,.09Z"/><path class="b" d="M10.77,18.57h-.3v1.35c0,.18-.04,.31-.12,.39s-.18,.13-.31,.13c-.14,0-.24-.04-.32-.13s-.11-.22-.11-.39v-3.24c0-.18,.04-.32,.12-.4,.08-.08,.22-.12,.4-.12h1.39c.19,0,.36,0,.49,.02,.14,.02,.26,.05,.37,.1,.13,.06,.25,.14,.35,.24s.18,.22,.23,.36,.08,.28,.08,.44c0,.31-.09,.57-.27,.75s-.45,.32-.81,.4c.15,.08,.3,.2,.43,.36,.14,.16,.26,.32,.37,.5,.11,.18,.19,.34,.25,.48,.06,.14,.09,.24,.09,.29s-.02,.11-.05,.17c-.04,.05-.08,.1-.15,.13-.06,.03-.13,.05-.21,.05-.1,0-.18-.02-.24-.07-.07-.04-.12-.1-.17-.17-.05-.07-.11-.17-.19-.3l-.34-.57c-.12-.21-.23-.37-.33-.48-.1-.11-.2-.18-.29-.22-.1-.04-.23-.06-.38-.06Zm.49-1.77h-.79v1.16h.76c.21,0,.38-.02,.52-.05,.14-.04,.25-.09,.32-.18,.07-.08,.11-.2,.11-.35,0-.12-.03-.22-.09-.31-.06-.09-.14-.16-.25-.2-.1-.04-.3-.06-.59-.06Z"/><path class="b" d="M16.63,16.82h-1.92v1.03h1.77c.13,0,.23,.03,.29,.09s.1,.13,.1,.23-.03,.17-.09,.24c-.06,.06-.16,.09-.29,.09h-1.77v1.2h1.99c.13,0,.23,.03,.3,.09s.1,.15,.1,.25-.03,.18-.1,.24c-.07,.06-.17,.09-.3,.09h-2.32c-.19,0-.32-.04-.4-.12-.08-.08-.12-.21-.12-.4v-3.17c0-.12,.02-.22,.05-.3,.04-.08,.09-.13,.17-.17,.08-.04,.18-.05,.3-.05h2.25c.13,0,.24,.03,.3,.09,.07,.06,.1,.14,.1,.24s-.03,.18-.1,.24-.17,.09-.3,.09Z"/><path class="b" d="M20.56,16.82h-1.92v1.03h1.77c.13,0,.23,.03,.29,.09,.06,.06,.1,.13,.1,.23s-.03,.17-.09,.24c-.06,.06-.16,.09-.29,.09h-1.77v1.2h1.99c.13,0,.23,.03,.3,.09s.1,.15,.1,.25-.03,.18-.1,.24c-.07,.06-.17,.09-.3,.09h-2.32c-.19,0-.32-.04-.4-.12-.08-.08-.12-.21-.12-.4v-3.17c0-.12,.02-.22,.05-.3,.04-.08,.09-.13,.17-.17,.08-.04,.18-.05,.3-.05h2.25c.14,0,.24,.03,.3,.09,.07,.06,.1,.14,.1,.24s-.03,.18-.1,.24c-.07,.06-.17,.09-.3,.09Z"/></svg>