<?xml version="1.0" encoding="UTF-8"?><svg id="a" xmlns="http://www.w3.org/2000/svg" viewBox="0 0 39.75 39.75"><path d="M19.58,36.7c-1.04-.44-1.75-1.27-2.44-2.11-3.45-4.22-6.31-8.79-8.4-13.84-.57-1.37-1.01-2.78-1.16-4.26-.15-1.57,.02-3.12,.53-4.6,1.46-4.26,4.35-7.07,8.71-8.24,6.73-1.82,13.68,2.5,15.18,9.33,.52,2.39,.22,4.68-.62,6.94-1.28,3.46-3.09,6.63-5.09,9.71-1.3,1.99-2.67,3.92-4.28,5.68-.51,.56-1.05,1.1-1.78,1.4h-.65Zm.33-2.01c.26-.29,.47-.53,.69-.77,1.64-1.84,3.06-3.84,4.39-5.92,1.79-2.81,3.42-5.7,4.57-8.84,.7-1.92,.97-3.86,.5-5.88-1.28-5.42-6.6-9.03-12.21-7.85-3.67,.77-6.22,2.98-7.62,6.46-.64,1.6-.88,3.27-.57,4.99,.23,1.27,.64,2.48,1.15,3.66,1.96,4.54,4.56,8.7,7.66,12.54,.44,.54,.93,1.03,1.46,1.61Z"/><path d="M19.91,8.31c4.03,.02,7.32,3.31,7.3,7.32-.02,4.04-3.32,7.29-7.38,7.27-3.97-.01-7.25-3.34-7.23-7.32,.02-4.01,3.32-7.29,7.32-7.27Zm5.31,7.28c0-2.96-2.38-5.31-5.35-5.3-2.93,0-5.29,2.39-5.28,5.33,.01,2.94,2.39,5.31,5.31,5.31,2.94,0,5.32-2.4,5.32-5.34Z"/></svg>