<?xml version="1.0" encoding="UTF-8"?><svg id="a" xmlns="http://www.w3.org/2000/svg" viewBox="0 0 50.25 50"><defs><style>.b{fill:#fff;}</style></defs><g><path class="b" d="M16.22,42.66c6.32,.32,12.41-3.16,16.15-8.13,2.01-2.67,3.39-5.82,3.79-9.15,.34-2.85-.35-5.69-1.64-8.23-2.81-5.54-8.39-9.81-14.76-9.82-6.21-.01-12.08,3.53-14.91,9.07-1.69,3.3-2.19,7.16-1.54,10.8s2.75,6.86,5.71,9.16c.15,.12,.54,0,.57-.2,.2-1.93,.48-3.85,.78-5.76,.52-3.25,1.06-6.63,2.27-9.71,.11-.29,.22-.62,.38-.88-.11,.19-.18-.24,.01,.17,.23,.49,.58,.95,.83,1.44,.85,1.71,1.6,3.46,2.4,5.19,.5,1.08,1.01,2.16,1.54,3.23,.03,.06,.19,.48,.31,.6,.15,.15,.22,.24,.45,.24,.67,0,1.14-1.15,1.4-1.6,1.36-2.4,2.55-4.9,3.78-7.37,.49-.99,.98-1.98,1.47-2.97,.25-.51,.49-1.55,1.02-1.85-.32,.18-.1-.08-.06,.24,.02,.15,.12,.32,.16,.47,.19,.6,.31,1.23,.44,1.85,.86,4.02,1.44,8.24,3.54,11.85,1.46,2.51,3.66,4.26,6.51,4.88,.64,.14,1.28,.23,1.93,.28,.76,.07,1.19-.13,1.81-.6,1.7-1.29,2.63-3.41,2.57-5.52,0-.23-.3-.21-.46-.14-2.34,1.07-3.59,3.63-3.56,6.11,0,.15,.15,.2,.29,.19,3.16-.3,6.02-.83,8.62-2.78,.34-.26-.18-.44-.41-.26-2.46,1.84-5.15,2.32-8.14,2.61l.29,.19c-.03-2.27,1.02-4.71,3.19-5.71l-.46-.14c.03,1.23-.24,2.41-.87,3.48-.5,.85-1.42,2.07-2.46,2.16-1.12,.1-2.52-.33-3.55-.73-2.91-1.13-4.69-3.75-5.81-6.56-1.47-3.68-1.64-7.66-2.85-11.39-.71-2.17-1.92,.47-2.34,1.32-1.54,3.11-3.06,6.24-4.69,9.31-.32,.61-.64,1.23-1.02,1.8-.07,.1-.27,.29-.29,.4-.06,.3,.13-.16,.14,.06,0,.05-.26-.48-.31-.58-1.05-2.1-2.01-4.24-2.98-6.37-.24-.52-1.72-4.87-2.9-3.77-.38,.36-.57,1.22-.74,1.7-.27,.76-.49,1.53-.7,2.31-.49,1.86-.86,3.76-1.18,5.66-.4,2.33-.74,4.67-.99,7.02l.57-.2c-5.15-3.99-7-10.68-5.14-16.88,1.78-5.92,7.02-10.44,13.17-11.23,6.23-.79,11.92,2.53,15.3,7.65,1.49,2.26,2.56,4.89,2.75,7.61,.21,2.98-.73,6.07-2.13,8.68-3.26,6.07-9.96,10.76-17.02,10.4-.29-.01-.66,.41-.23,.44h0Z"/><path class="b" d="M17.02,42.83c-.27,0-.54,0-.81-.02h0c-.2,0-.28-.09-.31-.16-.03-.05-.06-.16,.03-.3,.09-.14,.31-.31,.52-.28,5.88,.29,11.91-2.96,15.63-8.29-.72-.69-1.36-1.51-1.9-2.44-1.76-3.04-2.46-6.52-3.14-9.9-.13-.67-.27-1.34-.41-2l-.05-.26c-.11-.52-.23-1.06-.38-1.58-.01-.05-.04-.1-.06-.16-.03-.07-.06-.14-.08-.22-.2,.27-.35,.67-.48,1.02-.07,.2-.14,.38-.22,.53-.49,.99-.98,1.98-1.47,2.97-.24,.48-.48,.96-.72,1.45-.97,1.97-1.97,4-3.07,5.94-.04,.07-.08,.15-.13,.25-.29,.57-.74,1.42-1.39,1.43h-.01c-.27,0-.39-.12-.52-.25l-.03-.03c-.11-.11-.22-.36-.32-.58l-.03-.06c-.49-.99-.99-2.05-1.54-3.23-.28-.61-.56-1.23-.84-1.84-.5-1.1-1.01-2.24-1.56-3.34-.11-.23-.26-.46-.4-.69-.12-.19-.24-.39-.35-.59-.05,.11-.09,.23-.13,.34l-.07,.19c-1.21,3.07-1.74,6.43-2.26,9.68-.33,2.06-.58,3.89-.76,5.59l.07,.05-.08,.03s0,.06,0,.09c-.01,.14-.12,.26-.28,.33-.16,.07-.38,.09-.52-.03-.03-.02-.06-.04-.09-.07l-.07,.03v-.07c-3.03-2.4-4.97-5.55-5.61-9.13-.67-3.75-.12-7.62,1.55-10.9,2.84-5.56,8.73-9.15,15.01-9.15h.04c6,.01,11.85,3.9,14.89,9.91,1.41,2.78,1.98,5.65,1.66,8.32-.34,2.85-1.41,5.66-3.11,8.21,.75,.67,1.58,1.18,2.47,1.53,.93,.36,2.24,.76,3.31,.74,.1-2.48,1.38-4.66,3.36-5.7h0c.09-.05,.18-.09,.27-.14,.14-.07,.37-.09,.52,0,.09,.06,.15,.16,.15,.27,0,.05,0,.1,0,.16l.08,.03-.08,.04c-.01,2.02-.87,3.93-2.34,5.19,2.57-.35,4.64-.96,6.58-2.41,.21-.16,.58-.13,.71,.06,.08,.11,.09,.28-.12,.45-2.51,1.88-5.29,2.48-8.69,2.81-.08,0-.17,0-.24-.03-.14,0-.29,0-.44,0-.71-.06-1.34-.15-1.95-.29-1.53-.33-2.91-1-4.09-1.96-.07,.1-.14,.19-.21,.29-3.85,5.12-9.71,8.21-15.46,8.21Zm-.83-.32s.02,0,.04,0h0c5.89,.3,12.04-2.79,16.02-8.07,.08-.1,.15-.2,.22-.3-.06-.05-.11-.1-.17-.15-3.78,5.39-9.89,8.7-15.87,8.38-.08,0-.21,.08-.25,.13Zm16.68-8.42c1.15,.94,2.49,1.59,3.98,1.91,.59,.13,1.22,.22,1.91,.28,.07,0,.14,0,.21,.01h0v-.12c-1.1,.05-2.46-.39-3.41-.76-.92-.36-1.76-.88-2.53-1.55-.05,.08-.1,.15-.16,.22Zm6.4,2.06s0,.09,0,.13c.08,0,.16-.02,.24-.04l-.15-.1s-.06,0-.08,.01Zm1.21-.07c-.08,.05-.15,.1-.22,.15,2.97-.34,5.44-.98,7.68-2.66,.05-.04,.06-.06,.06-.06-.02,0-.2-.03-.29,.03-2.29,1.72-4.8,2.25-7.22,2.53ZM19.72,7.47c-6.17,0-11.95,3.52-14.74,8.98-1.64,3.22-2.18,7.02-1.52,10.71,.62,3.44,2.47,6.49,5.36,8.83,.01-.11,.02-.23,.04-.34-4.67-3.98-6.48-10.41-4.63-16.58,1.8-5.99,7.14-10.55,13.29-11.33,5.89-.75,11.81,2.21,15.44,7.71,1.64,2.48,2.6,5.14,2.78,7.68,.19,2.72-.57,5.83-2.15,8.76-.25,.46-.51,.91-.79,1.34,.06,.06,.11,.11,.17,.17,1.65-2.5,2.7-5.26,3.04-8.04,.31-2.61-.25-5.42-1.63-8.15-3-5.9-8.74-9.73-14.62-9.74h-.04Zm-10.59,28.41v.09l.08-.03s-.05-.04-.08-.06Zm33.22-5.38c-1.77,1.01-2.96,3.07-3.07,5.33,.12-.02,.23-.06,.34-.1,.1-1.77,.86-3.92,2.72-5.07,0-.05,0-.11,0-.16Zm.29,.33c-.04,1.12-.34,2.16-.88,3.08-.33,.57-.92,1.42-1.65,1.89,.09,0,.17-.02,.26-.03,.03-.02,.07-.05,.1-.08,1.54-1.17,2.46-3.04,2.51-5.05-.12,.06-.23,.12-.34,.18Zm-33.47,4.68c.1,.08,.2,.17,.3,.25,.18-1.65,.43-3.43,.74-5.42,.52-3.26,1.06-6.64,2.27-9.74l.07-.18c.07-.18,.14-.37,.22-.54-.02-.04-.03-.08-.03-.12v-.12l.12-.03c.15-.02,.22,.13,.28,.27,.12,.25,.27,.49,.42,.73,.14,.23,.29,.47,.41,.71,.55,1.1,1.06,2.25,1.56,3.35,.28,.61,.56,1.23,.84,1.84,.55,1.18,1.05,2.24,1.54,3.22,0,.01,.02,.04,.03,.08,.05,.11,.17,.4,.25,.48l.03,.03c.12,.12,.16,.16,.31,.16h0c.47,0,.88-.8,1.13-1.27,.05-.1,.1-.19,.14-.26,1.09-1.93,2.09-3.96,3.06-5.92,.24-.48,.48-.97,.72-1.45,.49-.99,.98-1.98,1.47-2.97,.07-.13,.13-.31,.21-.5,.16-.42,.33-.88,.59-1.18h0l.1-.19c-.45,.36-.95,1.38-1.16,1.81l-.88,1.77c-1.25,2.53-2.54,5.14-3.89,7.68l-.12,.23c-.28,.53-.57,1.08-.91,1.58-.02,.04-.07,.09-.11,.14-.02,.02-.04,.05-.07,.08,.03,.03,.05,.08,.05,.15v.12l-.11,.03s-.05,.01-.07,.01c-.04,.03-.1,.06-.17,.02-.12-.06-.09-.19-.08-.27,0-.02,.01-.04,.02-.06-.04-.08-.09-.19-.16-.32l-.02-.04c-.87-1.74-1.69-3.54-2.48-5.28l-.5-1.1c-.03-.07-.08-.2-.15-.37-.32-.82-1.3-3.3-2.12-3.48-.14-.03-.26,.01-.39,.13-.27,.25-.44,.82-.58,1.27-.04,.14-.08,.27-.12,.38-.24,.68-.46,1.41-.69,2.3-.42,1.61-.8,3.4-1.18,5.65-.39,2.25-.68,4.33-.91,6.33Zm33.16-4.49c-1.58,1.07-2.27,2.94-2.4,4.54,.72-.46,1.3-1.35,1.56-1.8,.49-.83,.76-1.75,.83-2.74ZM19.33,7.92c-.59,0-1.19,.04-1.78,.11-6.04,.77-11.28,5.24-13.04,11.12-1.8,5.99-.08,12.22,4.38,16.13,.22-1.94,.52-3.96,.89-6.14,.39-2.25,.76-4.05,1.19-5.67,.23-.9,.46-1.63,.7-2.32,.04-.11,.08-.23,.12-.36,.15-.49,.33-1.09,.66-1.4,.2-.19,.42-.25,.66-.2,.86,.19,1.66,1.96,2.34,3.67,.06,.16,.11,.29,.14,.35l.5,1.1c.79,1.74,1.61,3.53,2.48,5.27l.02,.05,.09,.18h0s.07-.09,.09-.12c.33-.5,.61-1.04,.89-1.56l.12-.23c1.35-2.53,2.64-5.14,3.88-7.67l.87-1.77c.51-1.04,1.12-2.16,1.77-2.11,.33,.02,.59,.33,.79,.94,.54,1.67,.89,3.42,1.22,5.11,.41,2.09,.83,4.24,1.63,6.26,.71,1.79,1.6,3.24,2.64,4.36,.26-.41,.51-.83,.74-1.26,1.55-2.88,2.3-5.93,2.11-8.6-.18-2.49-1.12-5.1-2.73-7.54-3.2-4.86-8.21-7.69-13.38-7.69Zm13.14,25.82c.06,.05,.11,.1,.17,.15,.05-.08,.11-.16,.16-.23-.06-.05-.11-.11-.17-.16-.05,.08-.11,.16-.16,.24Zm-6.17-16.75s.01,.06,.02,.09c0,.07,.05,.16,.08,.25,.03,.06,.05,.13,.07,.18,.16,.53,.28,1.08,.39,1.6l.05,.26c.14,.66,.28,1.33,.41,2,.67,3.35,1.37,6.81,3.11,9.81,.52,.89,1.12,1.68,1.81,2.34,.06-.08,.11-.17,.17-.25-1.1-1.15-2.02-2.65-2.76-4.51-.82-2.05-1.24-4.22-1.65-6.32-.33-1.68-.67-3.42-1.21-5.08-.15-.47-.33-.72-.52-.73-.08,0-.2,.04-.3,.12h.08s.05,0,.09-.03h0l.06,.11s.06,.08,.08,.15h0Zm16.46,13.31l.23,.07v-.05s-.15-.05-.23-.02ZM13,19.78h.06c0-.05-.03-.07-.06-.08-.05-.02-.09,0-.1,.02l.11,.07Zm-.11-.06h0Z"/></g><g><path class="b" d="M36.21,29.46c1.89,1.68,3.11,4.35,2.92,6.88l.62-.19c-1.62-.65-2.96-2.2-3.24-3.93-.16-.99,0-1.98,.32-2.92,.03-.1-.57-.04-.62,.12-.5,1.49-.58,3.12,.21,4.52,.5,.89,1.28,1.62,2.16,2.13,.19,.11,.38,.21,.58,.29,.12,.05,.6-.02,.62-.19,.2-2.54-1.05-5.23-2.95-6.92-.12-.11-.68,.14-.6,.21Z"/><path class="b" d="M38.96,36.54v-.1c-.16-.08-.32-.17-.47-.25-.96-.56-1.72-1.32-2.21-2.19-.93-1.65-.63-3.43-.23-4.64,.05-.14,.23-.21,.41-.25,.17-.06,.35-.07,.45,.02,1.98,1.76,3.16,4.46,3.01,6.92l.27,.11-.3,.09s-.06,.1-.13,.14c-.18,.11-.51,.15-.66,.1l-.14,.04Zm.33-.44v.02h.03l-.03-.02Zm-3.03-6.4c-.34,1.12-.53,2.7,.29,4.15,.46,.83,1.19,1.54,2.1,2.08,.11,.06,.23,.13,.35,.19,0-.06,0-.12,0-.18-1.37-.8-2.4-2.21-2.64-3.7-.12-.72-.07-1.5,.13-2.32-.07-.08-.15-.15-.23-.22Zm3.04,6.07c.11,.06,.22,.11,.33,.16,.1-2.24-.95-4.71-2.73-6.4-.03,.1-.06,.2-.09,.3,1.54,1.61,2.47,3.83,2.48,5.93Zm-2.57-5.59c-.15,.71-.18,1.39-.08,2.01,.22,1.35,1.12,2.63,2.34,3.4-.06-1.91-.9-3.91-2.26-5.41Zm-.31-.73s.1,.09,.15,.14c.02-.06,.04-.13,.06-.19-.04,0-.08,0-.11,.02-.03,.01-.06,.03-.09,.04Z"/></g></svg>