<?xml version="1.0" encoding="UTF-8"?><svg id="a" xmlns="http://www.w3.org/2000/svg" viewBox="0 0 39.87 39.87"><path d="M20.94,34.88c-2.99-.03-5.44-.64-7.74-1.89-.31-.17-.4-.35-.29-.57,.12-.23,.35-.28,.66-.11,1.65,.9,3.41,1.48,5.28,1.68,3.72,.4,7.16-.44,10.21-2.62,3.33-2.39,5.34-5.63,5.97-9.67,1.2-7.77-3.84-14.87-11.17-16.48-5.32-1.17-9.94,.26-13.81,4.08-.5,.5-.92,1.08-1.37,1.63-.22,.27-.41,.34-.61,.2-.21-.15-.22-.38-.01-.66,2.51-3.39,5.82-5.49,9.98-6.2,7.83-1.34,15.32,3.54,17.42,11.12,2.28,8.23-2.71,16.88-11,19-.5,.13-1.01,.25-1.52,.31-.79,.1-1.58,.16-1.99,.2Z"/><path d="M8.53,11.52c-.5,0-.88-.31-.96-.77-.1-.54-.18-1.08-.26-1.63-.03-.21,.04-.36,.25-.41,.21-.04,.35,.06,.39,.27,.09,.51,.17,1.01,.25,1.52,.05,.32,.13,.38,.48,.33,.48-.08,.95-.16,1.43-.24,.22-.04,.38,.03,.42,.26,.04,.22-.07,.35-.28,.39-.59,.1-1.18,.19-1.71,.28Z"/><path d="M6.74,24.72c.06,.06,.21,.15,.28,.28,.18,.34,.33,.7,.5,1.06,.11,.23,.07,.43-.16,.54-.23,.12-.43,.03-.55-.21-.17-.37-.35-.74-.51-1.12-.11-.27,.06-.53,.44-.55Z"/><path d="M7.86,26.99c.05,.03,.18,.08,.25,.17,.25,.34,.48,.69,.72,1.04,.13,.2,.11,.39-.08,.53-.2,.14-.41,.11-.55-.1-.25-.34-.49-.69-.71-1.05-.17-.27,0-.59,.38-.59Z"/><path d="M6.64,23.98c-.09,.09-.19,.27-.31,.28-.14,.02-.39-.08-.43-.18-.16-.44-.29-.9-.37-1.36-.02-.11,.16-.33,.29-.38,.11-.04,.37,.08,.41,.18,.16,.45,.27,.92,.42,1.46Z"/><path d="M5.16,20.26c.03-.07,.05-.24,.14-.35,.07-.08,.26-.13,.36-.09,.11,.04,.24,.19,.26,.3,.07,.4,.09,.81,.13,1.22,.02,.26-.08,.45-.35,.47-.27,.02-.4-.14-.42-.4-.03-.36-.08-.71-.13-1.15Z"/><path d="M12.56,31.86c0,.36-.32,.55-.57,.39-.38-.25-.75-.52-1.09-.82-.09-.08-.1-.34-.04-.47,.09-.19,.3-.24,.49-.12,.37,.25,.72,.52,1.07,.79,.08,.06,.12,.19,.14,.23Z"/><path d="M9.31,28.97c.14,.09,.26,.14,.34,.23,.27,.27,.53,.55,.79,.82,.18,.19,.22,.4,.03,.58-.18,.17-.39,.15-.56-.03-.29-.29-.59-.58-.85-.89-.08-.1-.11-.3-.07-.42,.03-.11,.2-.18,.32-.28Z"/><path d="M21.22,9.18c.59,.29,1.17,.59,1.76,.87,2.63,1.27,5.26,2.54,7.89,3.8,.23,.11,.31,.25,.31,.5,0,3.73,0,7.45,0,11.18,0,.25-.09,.38-.31,.49-3.17,1.53-6.34,3.06-9.51,4.59-.19,.09-.34,.1-.53,0-3.17-1.54-6.34-3.07-9.52-4.59-.23-.11-.31-.25-.31-.5,0-3.72,0-7.44,0-11.16,0-.26,.1-.4,.33-.51,3.16-1.52,6.31-3.04,9.46-4.56,.06-.03,.12-.07,.17-.11,.08,0,.17,0,.25,0Zm9.33,5.55c-.06,.02-.09,.03-.12,.05-.88,.43-1.76,.85-2.64,1.27-.12,.06-.14,.13-.14,.24,0,1.18,0,2.35,0,3.53,0,.18-.05,.32-.21,.4-.77,.37-1.54,.74-2.3,1.11-.15,.07-.31,.07-.4-.07-.06-.1-.08-.24-.08-.36,0-1.15,0-2.3,0-3.45,0-.14-.04-.21-.17-.27-3.06-1.47-6.11-2.95-9.16-4.42-.08-.04-.2-.03-.28,0-.57,.26-1.14,.54-1.7,.81-.41,.2-.82,.4-1.27,.61,.09,.05,.15,.08,.21,.11,2.14,1.03,4.28,2.07,6.42,3.1,.08,.04,.15,.07,.22,.12,.14,.1,.17,.24,.1,.39-.07,.15-.19,.2-.35,.17-.07-.01-.13-.05-.19-.08-1.82-.88-3.64-1.76-5.46-2.63-.45-.22-.9-.44-1.38-.67v.26c0,3.42,0,6.84,0,10.26,0,.18,.06,.27,.22,.34,2.49,1.19,4.97,2.4,7.46,3.6,.48,.23,.95,.46,1.46,.7v-3.05c0-2.47,0-4.93,0-7.4,0-.24-.07-.36-.28-.43-.17-.06-.33-.15-.49-.23-.22-.11-.29-.28-.2-.46,.09-.17,.27-.22,.49-.12,.21,.1,.42,.22,.64,.31,.1,.04,.24,.04,.33,0,.65-.3,1.3-.62,1.95-.93,.1-.05,.23-.1,.31-.07,.1,.04,.22,.16,.25,.27,.04,.16-.07,.27-.22,.34-.64,.31-1.27,.62-1.91,.92-.16,.08-.22,.16-.22,.34,0,3.42,0,6.84,0,10.26v.25c.1-.04,.17-.07,.23-.1,2.9-1.4,5.8-2.8,8.71-4.2,.15-.07,.19-.15,.19-.32,0-3.43,0-6.87,0-10.3v-.22Zm-12.05-3.63c.1,.05,.17,.09,.23,.12,2.87,1.39,5.75,2.78,8.62,4.17,.13,.06,.23,.05,.35,0,.74-.36,1.48-.72,2.23-1.08,.05-.03,.11-.06,.18-.1-.66-.32-1.29-.63-1.93-.93-2.31-1.11-4.62-2.23-6.93-3.34-.08-.04-.2-.06-.26-.03-.82,.39-1.64,.79-2.49,1.2Zm8.27,4.73c-.07-.04-.11-.07-.15-.09-2.9-1.4-5.8-2.8-8.71-4.2-.08-.04-.22-.04-.31,0-.5,.23-1,.48-1.49,.72-.05,.02-.1,.05-.17,.09,.08,.04,.13,.07,.19,.1,2.7,1.3,5.4,2.61,8.1,3.91,.24,.11,.48,.31,.72,.31,.24,0,.48-.2,.72-.31,.36-.17,.71-.35,1.09-.53Zm.24,.6c-.54,.26-1.03,.5-1.53,.73-.14,.06-.19,.14-.19,.3,0,.95,0,1.9,0,2.86,0,.07,0,.13,.01,.23,.52-.25,1.01-.49,1.51-.72,.14-.07,.2-.14,.2-.31-.01-.95,0-1.89,0-2.84v-.24Z"/><path d="M12.71,22.04s.12,.04,.2,.08c.84,.4,1.68,.81,2.53,1.22,.04,.02,.08,.04,.11,.06,.18,.1,.24,.26,.16,.42-.08,.17-.26,.23-.44,.15-.34-.15-.67-.32-1-.48-.57-.28-1.14-.55-1.71-.83-.16-.08-.23-.21-.19-.38,.04-.15,.15-.23,.35-.23Z"/><path d="M14.41,24.46c0,.3-.22,.46-.42,.37-.5-.23-.99-.46-1.47-.71-.17-.08-.21-.26-.14-.41,.08-.16,.25-.23,.42-.15,.47,.22,.95,.45,1.41,.68,.1,.05,.16,.17,.2,.22Z"/></svg>