<?xml version="1.0" encoding="UTF-8"?><svg id="a" xmlns="http://www.w3.org/2000/svg" viewBox="0 0 39.75 39.75"><path d="M13.64,11.21c.06-1,.03-1.93,.18-2.84,.5-3.13,3.38-5.49,6.61-5.49,3.21,0,6.08,2.37,6.57,5.48,.14,.91,.12,1.85,.18,2.86,.15,0,.33,0,.51,0,1.22,0,2.44,0,3.66,0,.74,0,1.02,.22,1.12,.95,.29,2.14,.56,4.29,.85,6.43,.32,2.45,.65,4.89,.97,7.34,.32,2.43,.64,4.86,.96,7.29,.05,.35,.05,.71,.14,1.05,.18,.65-.04,1.12-.49,1.6-.62,.65-1.27,.95-2.21,.95-8.26-.04-16.53-.03-24.79,0-.68,0-1.17-.19-1.66-.65-.62-.59-.92-1.15-.78-2.08,.5-3.27,.9-6.56,1.33-9.85,.39-2.95,.77-5.9,1.15-8.85,.14-1.09,.28-2.18,.43-3.27,.1-.67,.38-.9,1.06-.91,1.4,0,2.81,0,4.23,0Zm-3.69,1.68c-.04,.19-.09,.35-.11,.52-.42,3.2-.83,6.4-1.25,9.6-.49,3.72-1,7.43-1.49,11.15-.09,.65,.24,1.01,.91,1.01,8.26,0,16.52,0,24.78,0,.69,0,1-.38,.9-1.07-.13-.92-.26-1.84-.38-2.76-.32-2.43-.64-4.86-.96-7.28-.36-2.71-.72-5.42-1.08-8.14-.13-1-.27-2-.4-3.02H9.95Zm5.39-1.72h10.15c0-.59,0-1.14,0-1.7-.03-2.08-1.35-3.92-3.32-4.65-1.93-.71-4.14-.15-5.51,1.37-1.29,1.43-1.39,3.15-1.31,4.98Z"/></svg>