<?xml version="1.0" encoding="UTF-8"?><svg id="a" xmlns="http://www.w3.org/2000/svg" viewBox="0 0 70 32.19"><defs><style>.b{fill:#231815;}</style></defs><path class="b" d="M12.11,18.65c.21-.31,.7-1.06,1.47-2.25,.66-1.01,1.7-2.47,3.14-4.38,.83-1.11,1.59-2.03,2.27-2.78,.4-.45,.76-.68,1.07-.68,.18,0,.33,.06,.45,.19,.11,.1,.16,.23,.16,.38,0,.22-.14,.58-.41,1.06-.05,.1-.32,.58-.82,1.44-.87,1.55-1.47,2.66-1.78,3.32-.85,1.82-1.48,3.36-1.88,4.64-.23,.76-.35,1.32-.35,1.68,0,.08,0,.16,.02,.25,.03,.26,.05,.41,.05,.46,0,.19-.07,.37-.22,.54-.13,.15-.27,.23-.43,.23-.19,0-.34-.11-.46-.33-.1-.17-.15-.4-.15-.7,0-1.88,1.56-5.56,4.69-11.05-1.64,1.75-3.45,4.25-5.44,7.51-.44,.71-.8,1.19-1.08,1.44-.28,.25-.54,.37-.8,.37s-.44-.11-.56-.33c-.08-.15-.12-.32-.12-.51,0-1.66,.98-4.26,2.95-7.82-.67,.68-1.31,1.47-1.93,2.38-1.12,1.66-2.12,3.37-3,5.12-.42,.84-.92,1.96-1.52,3.37-.3,.72-.64,1.07-1.03,1.07-.1,0-.18-.04-.25-.13-.05-.06-.08-.13-.08-.22,0-.13,.12-.47,.37-1.03,.52-1.24,.92-2.13,1.2-2.67,1.42-2.78,3.11-5.39,5.06-7.83,.81-1.02,1.38-1.68,1.69-1.99,.32-.31,.59-.47,.81-.47,.13,0,.26,.06,.39,.18,.15,.14,.23,.3,.23,.48,0,.2-.14,.53-.42,.98-.8,1.3-1.53,2.76-2.2,4.37-.58,1.46-.95,2.69-1.11,3.71Z"/><path class="b" d="M18.99,19.84v.18c0,.15,.04,.27,.11,.38,.17,.25,.44,.37,.81,.37,.83,0,1.79-.64,2.87-1.91,.19-.22,.35-.33,.49-.33,.07,0,.14,.04,.2,.11,.04,.05,.06,.1,.06,.15,0,.26-.32,.7-.95,1.31-.5,.48-1.03,.88-1.59,1.18-.56,.3-1.09,.46-1.57,.46s-.89-.17-1.17-.52c-.19-.24-.29-.56-.29-.97,0-1.12,.53-2.22,1.58-3.29,.85-.88,1.6-1.31,2.24-1.31,.17,0,.33,.05,.47,.16,.17,.14,.26,.32,.26,.55,0,.35-.16,.78-.49,1.29-.67,1.06-1.68,1.79-3.02,2.2Zm.22-.78c.46-.16,.83-.34,1.09-.54,.46-.36,.83-.76,1.1-1.21,.1-.16,.15-.3,.15-.43,0-.13-.06-.2-.19-.2-.17,0-.42,.13-.74,.39-.57,.46-1.04,1.12-1.42,1.99Z"/><path class="b" d="M25.43,18.45c-.2,.52-.35,.93-.45,1.25-.1,.32-.15,.54-.15,.67,0,.17,.08,.25,.24,.25,.24,0,.55-.23,.92-.68,.18-.22,.44-.61,.8-1.18,.14-.22,.28-.34,.44-.34,.17,0,.26,.08,.26,.25,0,.29-.33,.86-.98,1.73-.68,.91-1.32,1.36-1.9,1.36-.25,0-.46-.11-.62-.32-.11-.15-.17-.34-.17-.56,0-.37,.11-.88,.34-1.54s.56-1.45,1-2.4c1.14-2.39,2.3-4.36,3.49-5.91,.95-1.25,1.73-1.87,2.36-1.87,.2,0,.36,.08,.49,.23,.13,.15,.2,.33,.2,.53,0,.93-.83,2.47-2.49,4.63-.74,.96-1.63,1.92-2.66,2.88-.27,.25-.64,.59-1.11,1.01Zm.71-1.58c1.38-1.18,2.61-2.67,3.7-4.47,.56-.93,.84-1.55,.84-1.86,0-.15-.06-.22-.19-.22-.36,0-1.03,.73-1.99,2.18-.8,1.19-1.58,2.65-2.37,4.37Z"/><path class="b" d="M29.8,18.45c-.2,.52-.35,.93-.45,1.25-.1,.32-.15,.54-.15,.67,0,.17,.08,.25,.24,.25,.24,0,.55-.23,.92-.68,.18-.22,.44-.61,.8-1.18,.14-.22,.28-.34,.44-.34,.17,0,.26,.08,.26,.25,0,.29-.33,.86-.98,1.73-.68,.91-1.32,1.36-1.9,1.36-.25,0-.46-.11-.62-.32-.11-.15-.17-.34-.17-.56,0-.37,.11-.88,.34-1.54s.56-1.45,1-2.4c1.14-2.39,2.3-4.36,3.49-5.91,.95-1.25,1.73-1.87,2.36-1.87,.2,0,.36,.08,.49,.23,.13,.15,.2,.33,.2,.53,0,.93-.83,2.47-2.49,4.63-.74,.96-1.63,1.92-2.66,2.88-.27,.25-.64,.59-1.11,1.01Zm.71-1.58c1.38-1.18,2.61-2.67,3.7-4.47,.56-.93,.84-1.55,.84-1.86,0-.15-.06-.22-.19-.22-.36,0-1.03,.73-1.99,2.18-.8,1.19-1.58,2.65-2.37,4.37Z"/><path class="b" d="M35.15,15.8c.11,0,.21,.04,.28,.13,.05,.07,.08,.15,.08,.22,0,.12-.1,.32-.29,.6-.69,1.07-1.18,1.95-1.47,2.63-.31,.71-.59,1.44-.82,2.19-.11,.33-.27,.5-.5,.5-.13,0-.24-.05-.32-.16-.07-.09-.11-.18-.11-.28,0-.2,.21-.86,.64-1.99,.33-.89,.87-1.87,1.61-2.94,.24-.35,.42-.59,.54-.71,.12-.13,.24-.19,.37-.19Zm1.89-3.69c.3,0,.45,.15,.45,.46,0,.28-.15,.59-.44,.92-.28,.32-.55,.49-.81,.49-.13,0-.23-.05-.31-.14-.08-.09-.12-.19-.12-.32,0-.32,.18-.66,.53-1.01,.26-.26,.49-.4,.7-.4Z"/><path class="b" d="M36.87,17.06c1.01-2.19,2-3.97,2.97-5.34,.66-.93,1.2-1.6,1.63-2.03,.3-.3,.55-.45,.77-.45,.08,0,.15,.03,.21,.08,.09,.07,.14,.16,.14,.27,0,.15-.12,.35-.35,.63-1.46,1.67-2.79,3.67-3.98,6,1.06-.4,1.8-.61,2.22-.61,.3,0,.56,.08,.76,.23,.21,.16,.31,.34,.31,.55,0,.11-.04,.2-.11,.29-.1,.13-.23,.19-.39,.19-.11,0-.33-.09-.67-.28-.09-.05-.21-.07-.36-.07-.66,0-1.46,.3-2.39,.91,.4,.19,.68,.43,.84,.74,.23,.43,.34,.96,.34,1.59,0,1.62-.48,3.34-1.45,5.14-.42,.77-.82,1.35-1.21,1.75-.42,.43-.84,.65-1.28,.65-.33,0-.6-.16-.8-.48-.17-.27-.25-.63-.25-1.08,0-.98,.37-2.46,1.11-4.42,.09-.24,.36-.85,.79-1.84,.11-.25,.22-.51,.33-.79-.05,.01-.1,.02-.15,.02-.18,0-.27-.1-.27-.3,0-.35,.41-.8,1.23-1.34Zm.34,1.3c-.37,.7-.86,1.84-1.47,3.4-.63,1.6-.94,2.84-.94,3.72,0,.17,.04,.32,.13,.46,.09,.13,.2,.2,.33,.2,.41,0,.95-.69,1.62-2.07,.76-1.54,1.13-2.95,1.13-4.22,0-.5-.1-.87-.29-1.12-.07-.1-.24-.22-.51-.36Z"/><path class="b" d="M42.06,18.45c-.2,.52-.35,.93-.45,1.25-.1,.32-.15,.54-.15,.67,0,.17,.08,.25,.24,.25,.24,0,.55-.23,.92-.68,.18-.22,.44-.61,.79-1.18,.14-.22,.29-.34,.44-.34,.17,0,.26,.08,.26,.25,0,.29-.33,.86-.98,1.73-.68,.91-1.32,1.36-1.9,1.36-.25,0-.46-.11-.62-.32-.11-.15-.17-.34-.17-.56,0-.37,.11-.88,.34-1.54,.22-.66,.56-1.45,1-2.4,1.14-2.39,2.3-4.36,3.49-5.91,.95-1.25,1.73-1.87,2.36-1.87,.2,0,.36,.08,.49,.23,.13,.15,.2,.33,.2,.53,0,.93-.83,2.47-2.49,4.63-.74,.96-1.63,1.92-2.66,2.88-.27,.25-.64,.59-1.11,1.01Zm.71-1.58c1.38-1.18,2.61-2.67,3.7-4.47,.56-.93,.84-1.55,.84-1.86,0-.15-.06-.22-.19-.22-.36,0-1.03,.73-1.99,2.18-.8,1.19-1.58,2.65-2.37,4.37Z"/><path class="b" d="M47.57,20.23c-.29,.4-.54,.72-.76,.95-.38,.42-.77,.64-1.14,.64-.33,0-.58-.15-.76-.44-.13-.21-.19-.45-.19-.74,0-.85,.36-1.83,1.09-2.94,.34-.52,.67-.91,1-1.18,.26-.22,.47-.33,.64-.33,.09,0,.18,.04,.26,.12,.07,.07,.1,.15,.1,.22,0,.13-.12,.33-.37,.62-.55,.66-.97,1.26-1.25,1.81-.33,.64-.5,1.15-.5,1.51,0,.09,.02,.16,.06,.21s.1,.07,.18,.07c.34,0,.81-.48,1.41-1.45,.31-.5,.58-1.06,.8-1.67,.12-.33,.28-.63,.47-.88,.19-.23,.37-.35,.55-.35,.1,0,.19,.04,.27,.13,.09,.09,.13,.2,.13,.31,0,.24-.23,.78-.69,1.61-.31,.58-.47,1.06-.47,1.44,0,.41,.11,.76,.33,1.05,.06,.08,.24,.21,.55,.38,.15,.09,.22,.23,.22,.42,0,.12-.05,.22-.15,.31-.1,.09-.23,.13-.37,.13-.33,0-.63-.13-.9-.4-.25-.24-.4-.58-.47-1.03-.01-.06-.03-.23-.05-.52Z"/><path class="b" d="M53.92,15.34c.54,0,.81,.33,.81,.99,0,.88-.41,2-1.22,3.35-.89,1.46-1.75,2.2-2.57,2.2-.38,0-.67-.18-.84-.54-.09-.18-.14-.39-.14-.65,0-.85,.29-1.77,.87-2.76,.54-.92,1.18-1.64,1.92-2.15,.43-.3,.82-.45,1.17-.45Zm-1.03,3.76c-.17-.13-.25-.23-.25-.31,0-.05,.11-.2,.32-.44,.6-.67,.89-1.21,.89-1.62,0-.05-.02-.11-.05-.16-.05-.1-.14-.15-.25-.15-.21,0-.52,.21-.93,.62-.53,.53-.93,1.08-1.21,1.64-.33,.64-.49,1.18-.49,1.6,0,.11,.03,.21,.09,.3,.09,.12,.2,.18,.33,.18,.32,0,.66-.24,1.02-.72,.16-.2,.29-.4,.39-.62,.1-.21,.15-.32,.14-.33Z"/><path class="b" d="M57.58,20.23c-.29,.4-.54,.72-.75,.95-.38,.42-.77,.64-1.14,.64-.32,0-.58-.15-.75-.44-.13-.21-.19-.45-.19-.74,0-.85,.36-1.83,1.09-2.94,.34-.52,.67-.91,1-1.18,.26-.22,.47-.33,.64-.33,.09,0,.18,.04,.26,.12,.07,.07,.1,.15,.1,.22,0,.13-.12,.33-.37,.62-.55,.66-.97,1.26-1.25,1.81-.33,.64-.5,1.15-.5,1.51,0,.09,.02,.16,.06,.21s.1,.07,.18,.07c.34,0,.81-.48,1.41-1.45,.31-.5,.58-1.06,.81-1.67,.12-.33,.27-.63,.47-.88,.19-.23,.37-.35,.55-.35,.1,0,.19,.04,.27,.13,.09,.09,.13,.2,.13,.31,0,.24-.23,.78-.69,1.61-.31,.58-.47,1.06-.47,1.44,0,.41,.11,.76,.33,1.05,.06,.08,.24,.21,.55,.38,.15,.09,.22,.23,.22,.42,0,.12-.05,.22-.15,.31-.1,.09-.23,.13-.37,.13-.33,0-.63-.13-.91-.4-.25-.24-.4-.58-.47-1.03-.01-.06-.03-.23-.05-.52Z"/><path class="b" d="M64.66,15.15c.41,0,.72,.07,.92,.22,.21,.15,.31,.37,.31,.67,0,.39-.15,.77-.44,1.13-.28,.34-.7,.62-1.25,.83-.3,.11-.56,.17-.77,.17-.28,0-.42-.12-.42-.37,0-.17,.08-.29,.24-.38,.04-.02,.26-.08,.68-.17,.25-.05,.47-.17,.68-.35,.18-.15,.27-.32,.27-.5,0-.14-.04-.24-.12-.31-.08-.07-.2-.1-.36-.1-.38,0-.81,.16-1.27,.47-.54,.35-.81,.77-.81,1.25,0,.34,.18,.78,.53,1.29,.39,.56,.59,1.04,.59,1.43,0,.58-.26,1.04-.78,1.37-.32,.21-.68,.31-1.08,.31-.64,0-1.12-.23-1.45-.69-.23-.33-.35-.71-.35-1.15,0-.52,.13-.95,.4-1.3,.17-.23,.35-.35,.54-.35,.17,0,.25,.07,.25,.2,0,.05-.03,.13-.09,.24-.15,.29-.23,.62-.23,1,0,.33,.12,.6,.35,.83,.21,.2,.44,.3,.71,.3s.46-.09,.61-.26c.12-.15,.18-.33,.18-.56,0-.28-.16-.64-.48-1.08-.44-.61-.66-1.16-.66-1.66,0-.66,.36-1.25,1.08-1.76,.7-.49,1.45-.74,2.23-.74Z"/></svg>