<?xml version="1.0" encoding="UTF-8"?><svg id="a" xmlns="http://www.w3.org/2000/svg" viewBox="0 0 39.75 39.75"><path d="M31.43,35.98c-.9-.72-1.8-1.45-2.7-2.17-.45-.36-.88-.74-1.34-1.08-.14-.1-.34-.18-.51-.18-2.86-.01-5.73,0-8.59,0-1.64,0-2.78-1.14-2.78-2.78,0-1.69,0-3.37,0-5.06v-.39c-.29,.03-.55,.06-.8,.07-2.5,.12-4.78-.53-6.82-1.97-.09-.07-.26-.09-.37-.06-.79,.19-1.58,.4-2.37,.61-.3,.08-.57,.08-.79-.17-.22-.25-.18-.52-.05-.8,.31-.67,.62-1.34,.92-2.02,.04-.1,.04-.25,0-.34-.91-1.43-1.47-2.97-1.63-4.66,0-.04-.03-.07-.05-.11v-1.91c.11-.55,.2-1.1,.32-1.64,.22-.93,.59-1.81,1.07-2.64,.15-.25,.37-.39,.66-.34,.29,.05,.51,.23,.53,.52,.02,.19-.06,.42-.16,.59-.78,1.44-1.17,2.97-1.15,4.6,.03,1.87,.57,3.59,1.65,5.12,.24,.35,.28,.65,.08,1.03-.2,.37-.35,.77-.56,1.22,.46-.12,.88-.19,1.28-.33,.5-.18,.88-.07,1.31,.25,5.23,3.95,13.01,1.07,14.44-5.34,1.13-5.08-1.96-9.97-7.05-11.1-2.23-.49-4.35-.15-6.37,.92-.18,.1-.4,.18-.59,.17-.28-.02-.47-.22-.52-.52-.05-.3,.06-.54,.32-.66,.7-.33,1.39-.7,2.12-.92,5.94-1.83,12.11,1.79,13.39,7.88,.21,1,.21,2.04,.31,3.11h.29c2.82,0,5.64,0,8.47,0,1.6,0,2.75,1.15,2.75,2.74,0,4.07,0,8.15,0,12.22,0,1.57-1.16,2.73-2.73,2.73-.37,0-.74,0-1.16,0,0,.18,0,.34,0,.51,0,.7-.02,1.4,0,2.1,.01,.38-.1,.66-.45,.83h-.38Zm-.44-1.99c0-.21,0-.34,0-.48,.02-2.54-.31-2.22,2.22-2.24,.02,0,.04,0,.06,0,1.03,0,1.59-.57,1.6-1.59,0-3.99,0-7.98,0-11.96,0-1.03-.57-1.59-1.6-1.59-2.87,0-5.75,0-8.62,0h-.3c-1.07,4.05-3.58,6.69-7.56,7.95v.34c0,1.74,0,3.48,0,5.22,0,1.09,.55,1.64,1.64,1.64,2.93,0,5.85,0,8.78,0,.3,0,.54,.07,.78,.27,.97,.81,1.95,1.6,2.99,2.45Z"/><path d="M13.26,13.39c-.67,0-1.35,0-2.02,0-.14,0-.28,0-.41-.05-.28-.1-.45-.41-.4-.69,.06-.3,.31-.53,.62-.54,.64,0,1.27,0,1.91,0,.11,0,.23,0,.39,0,0-.22,0-.42,0-.61,0-.65,0-1.29,0-1.94,0-.45,.28-.75,.66-.74,.37,0,.63,.29,.64,.73,0,.84,0,1.68,0,2.57,.13,0,.24,0,.35,0,.82,0,1.63,0,2.45,0,.44,0,.72,.25,.72,.63,0,.38-.27,.64-.71,.64-.9,0-1.8,0-2.77,0,.09,.36,.15,.69,.26,1,.48,1.41,1.36,2.5,2.64,3.27,.05,.03,.11,.07,.16,.1,.34,.22,.44,.56,.26,.87-.18,.32-.55,.42-.9,.23-.87-.47-1.61-1.1-2.21-1.89-.33-.45-.62-.94-.93-1.42-.04,.08-.09,.17-.14,.26-.66,1.27-1.61,2.28-2.86,3-.41,.24-.8,.17-.99-.17-.2-.34-.07-.69,.35-.95,1.57-.94,2.54-2.3,2.91-4.09,0-.04,.02-.08,.02-.13,0-.02,0-.04-.02-.1Z"/><path d="M7.08,6.27c.35,0,.64,.32,.63,.66,0,.34-.3,.62-.64,.62-.35,0-.65-.3-.65-.64,0-.34,.32-.65,.66-.64Z"/><path d="M22.6,25.69c-.13-.27-.27-.46-.31-.67-.05-.32,.23-.63,.6-.65,.26-.01,.36-.14,.45-.35,.6-1.39,1.21-2.77,1.82-4.16,.07-.15,.15-.31,.27-.42,.35-.3,.81-.15,1.02,.32,.49,1.11,.98,2.23,1.47,3.34,.1,.22,.21,.44,.29,.67,.12,.34,.25,.62,.7,.63,.25,0,.39,.23,.44,.48,.06,.31-.09,.53-.34,.71,.25,.58,.52,1.14,.75,1.72,.2,.49-.17,.96-.67,.9-.27-.03-.43-.2-.53-.44-.27-.62-.55-1.24-.81-1.86-.08-.2-.19-.26-.4-.26-1.02,.01-2.04,.01-3.05,0-.2,0-.3,.06-.38,.25-.27,.64-.55,1.28-.84,1.92-.13,.29-.37,.44-.69,.39-.29-.04-.48-.23-.53-.52-.02-.14,.02-.31,.08-.46,.22-.54,.46-1.07,.67-1.55Zm3.23-4.14l-1.22,2.78h2.44l-1.22-2.78Z"/></svg>