<?xml version="1.0" encoding="UTF-8"?><svg id="a" xmlns="http://www.w3.org/2000/svg" viewBox="0 0 39.75 39.75"><path d="M23.98,3.78c.13,.05,.26,.09,.38,.15,.84,.39,1.24,1.06,1.26,1.97,0,.51,0,1.02,0,1.58,.14,0,.27,0,.39,0,2.37,0,4.75,0,7.12,0,1.28,0,2.23,.99,2.22,2.26-.01,1.15-.95,2.11-2.1,2.15-.6,.02-.61,.02-.66,.61-.17,1.99-.34,3.98-.51,5.98-.16,1.89-.33,3.77-.49,5.66-.11,1.24-.2,2.48-.31,3.72-.03,.38-.24,.57-.53,.55-.29-.03-.47-.26-.44-.63,.11-1.36,.23-2.71,.34-4.07,.12-1.39,.24-2.78,.35-4.16,.12-1.41,.24-2.82,.36-4.23,.09-1.12,.19-2.24,.28-3.42h-.42c-5.61,0-11.22,0-16.83,0-.12,0-.23,0-.35,0-.27-.02-.47-.23-.45-.48,.02-.26,.17-.43,.44-.47,.1-.01,.21,0,.32,0,6.22,0,12.44,0,18.65,0,.67,0,1.16-.33,1.32-.89,.23-.78-.32-1.55-1.14-1.6-.06,0-.13,0-.19,0-7.98,0-15.95,0-23.93,0-.67,0-1.16,.33-1.32,.89-.23,.81,.35,1.59,1.2,1.6,.94,0,1.87,0,2.81,0,.42,0,.69,.34,.5,.66-.08,.14-.3,.27-.47,.29-.44,.04-.89,.01-1.36,.01,.05,.65,.1,1.26,.15,1.87,.12,1.43,.24,2.86,.36,4.29,.14,1.64,.28,3.28,.42,4.93,.12,1.36,.23,2.71,.34,4.07,.12,1.42,.24,2.84,.36,4.26,.06,.66,.07,1.32,.18,1.97,.22,1.33,1.35,2.24,2.74,2.24,4.04,0,8.07,0,12.11,0,.18,0,.36-.03,.54-.05,1.21-.19,2.14-1.21,2.23-2.44,.07-.95,.16-1.91,.25-2.86,.03-.3,.25-.52,.51-.5,.27,.02,.47,.23,.44,.52-.1,1.15-.14,2.32-.34,3.46-.29,1.64-1.81,2.83-3.47,2.83-4.15,0-8.31,0-12.46,0-1.8,0-3.37-1.43-3.54-3.22-.19-2-.34-4-.52-6.01-.16-1.89-.33-3.77-.49-5.66-.16-1.9-.31-3.79-.47-5.69-.1-1.26-.22-2.52-.32-3.78-.01-.18-.1-.22-.26-.23-.35-.03-.71-.03-1.03-.14-1-.34-1.6-1.38-1.44-2.4,.17-1.07,1.07-1.87,2.14-1.87,2.39-.01,4.77,0,7.16,0,.13,0,.25,0,.42,0,0-.55,0-1.06,0-1.58,.01-.89,.39-1.55,1.2-1.94,.14-.07,.29-.12,.44-.18h5.88Zm.63,3.69c0-.08,.02-.12,.02-.16,0-.5,0-1,0-1.5,0-.61-.43-1.06-1.04-1.07-1.7-.01-3.4-.01-5.1,0-.52,0-.98,.37-1.02,.84-.04,.62-.01,1.25-.01,1.88h7.15Z"/><path d="M21.54,23.47c0,2.27,0,4.53,0,6.8,0,.15,.01,.33-.07,.43-.1,.13-.29,.27-.45,.27-.14,0-.32-.14-.41-.27-.08-.12-.06-.31-.06-.46,0-4.52,0-9.04,0-13.57,0-.53,.14-.74,.48-.75,.36,0,.51,.21,.51,.76,0,2.27,0,4.53,0,6.8Z"/><path d="M17.01,30.29c.01,.48-.11,.66-.42,.69-.29,.03-.51-.13-.53-.42-.09-.97-.17-1.95-.26-2.92-.12-1.42-.24-2.84-.36-4.26-.12-1.38-.23-2.76-.34-4.13-.07-.89-.15-1.78-.23-2.67-.04-.4,.13-.65,.45-.67,.31-.02,.49,.17,.53,.55,.05,.56,.09,1.12,.14,1.68,.14,1.68,.29,3.37,.43,5.05,.12,1.39,.23,2.78,.34,4.16,.08,1,.17,1.99,.25,2.93Z"/><path d="M25.07,30.34c.12-1.4,.23-2.78,.35-4.15,.12-1.38,.24-2.75,.35-4.13,.12-1.43,.24-2.86,.36-4.29,.03-.41,.04-.83,.1-1.24,.03-.19,.13-.41,.27-.54,.09-.08,.36-.08,.46,0,.13,.1,.26,.31,.25,.47-.09,1.3-.21,2.61-.32,3.91-.12,1.4-.24,2.8-.36,4.2-.12,1.41-.24,2.82-.36,4.23-.05,.53-.09,1.06-.14,1.59-.05,.47-.19,.63-.52,.61-.33-.02-.46-.21-.44-.65Z"/></svg>