<?xml version="1.0" encoding="UTF-8"?><svg id="a" xmlns="http://www.w3.org/2000/svg" viewBox="0 0 39.87 39.87"><path d="M19.5,37.45c-.6-.09-1.2-.16-1.8-.27-4.09-.73-7.49-2.69-10.19-5.83-2.2-2.55-3.54-5.52-3.99-8.85C2.28,13.44,8.04,5.4,16.3,3.29c5.43-1.39,10.44-.36,14.96,2.99,.4,.3,.49,.68,.24,1.02-.26,.35-.66,.38-1.07,.07-1.9-1.44-4-2.46-6.34-2.92-5.15-1.02-9.78,.13-13.79,3.52-2.92,2.47-4.75,5.64-5.34,9.43-.89,5.69,.79,10.54,4.97,14.51,.04,.04,.09,.06,.16,.12,.7-2.9,2.25-5.19,4.73-6.81,1.97-1.29,4.15-1.85,6.5-1.73,4.5,.23,8.86,3.41,10.04,8.55,.11-.1,.21-.18,.31-.27,2.75-2.6,4.41-5.78,4.91-9.53,.48-3.57-.19-6.94-1.96-10.08-.07-.12-.14-.23-.2-.35-.19-.37-.1-.75,.22-.94,.35-.21,.74-.12,.95,.26,.38,.68,.75,1.36,1.07,2.07,.77,1.72,1.22,3.53,1.36,5.42,0,.09,.04,.17,.06,.26v2.44c-.05,.39-.09,.78-.15,1.17-.49,3.35-1.81,6.34-4.03,8.91-2.69,3.12-6.07,5.06-10.13,5.8-.61,.11-1.22,.18-1.84,.27h-2.44Zm1.23-1.34c.35-.02,.7-.05,1.05-.07,2.96-.18,5.64-1.14,8.08-2.8,.21-.14,.29-.29,.23-.53-.13-.49-.22-.99-.39-1.47-1.57-4.57-6.27-7.22-10.99-6.19-3.78,.82-6.69,3.85-7.33,7.63-.04,.25,.01,.41,.24,.56,2.75,1.89,5.8,2.81,9.13,2.86Z"/><path d="M20.72,22.12c-3.39,0-6.1-2.73-6.1-6.12,0-3.38,2.74-6.09,6.14-6.08,3.36,0,6.07,2.74,6.07,6.12,0,3.37-2.73,6.09-6.11,6.09Zm0-10.85c-2.6,0-4.75,2.16-4.74,4.75,0,2.6,2.16,4.75,4.75,4.74,2.6,0,4.75-2.16,4.74-4.76,0-2.6-2.16-4.75-4.75-4.74Z"/><path d="M33.19,8.28c.39,0,.69,.29,.69,.68,0,.39-.3,.68-.68,.68-.37,0-.66-.29-.67-.66,0-.39,.28-.69,.67-.69Z"/></svg>